%TF.GenerationSoftware,KiCad,Pcbnew,(5.1.9)-1*%
%TF.CreationDate,2021-03-10T13:48:37-05:00*%
%TF.ProjectId,RKJXT1F42001_Breakout,524b4a58-5431-4463-9432-3030315f4272,rev?*%
%TF.SameCoordinates,Original*%
%TF.FileFunction,Copper,L1,Top*%
%TF.FilePolarity,Positive*%
%FSLAX46Y46*%
G04 Gerber Fmt 4.6, Leading zero omitted, Abs format (unit mm)*
G04 Created by KiCad (PCBNEW (5.1.9)-1) date 2021-03-10 13:48:37*
%MOMM*%
%LPD*%
G01*
G04 APERTURE LIST*
%TA.AperFunction,NonConductor*%
%ADD10C,0.300000*%
%TD*%
%TA.AperFunction,NonConductor*%
%ADD11C,0.120000*%
%TD*%
%TA.AperFunction,EtchedComponent*%
%ADD12C,0.010000*%
%TD*%
%TA.AperFunction,ComponentPad*%
%ADD13C,1.500000*%
%TD*%
%TA.AperFunction,SMDPad,CuDef*%
%ADD14R,0.950000X0.900000*%
%TD*%
%TA.AperFunction,ComponentPad*%
%ADD15R,1.725000X1.725000*%
%TD*%
%TA.AperFunction,ComponentPad*%
%ADD16C,1.725000*%
%TD*%
%TA.AperFunction,Conductor*%
%ADD17C,0.250000*%
%TD*%
G04 APERTURE END LIST*
D10*
X139009714Y-72780857D02*
X139224000Y-72852285D01*
X139295428Y-72923714D01*
X139366857Y-73066571D01*
X139366857Y-73280857D01*
X139295428Y-73423714D01*
X139224000Y-73495142D01*
X139081142Y-73566571D01*
X138509714Y-73566571D01*
X138509714Y-72066571D01*
X139009714Y-72066571D01*
X139152571Y-72138000D01*
X139224000Y-72209428D01*
X139295428Y-72352285D01*
X139295428Y-72495142D01*
X139224000Y-72638000D01*
X139152571Y-72709428D01*
X139009714Y-72780857D01*
X138509714Y-72780857D01*
X140224000Y-73566571D02*
X140081142Y-73495142D01*
X140009714Y-73423714D01*
X139938285Y-73280857D01*
X139938285Y-72852285D01*
X140009714Y-72709428D01*
X140081142Y-72638000D01*
X140224000Y-72566571D01*
X140438285Y-72566571D01*
X140581142Y-72638000D01*
X140652571Y-72709428D01*
X140724000Y-72852285D01*
X140724000Y-73280857D01*
X140652571Y-73423714D01*
X140581142Y-73495142D01*
X140438285Y-73566571D01*
X140224000Y-73566571D01*
X141366857Y-73566571D02*
X141366857Y-72066571D01*
X141366857Y-72638000D02*
X141509714Y-72566571D01*
X141795428Y-72566571D01*
X141938285Y-72638000D01*
X142009714Y-72709428D01*
X142081142Y-72852285D01*
X142081142Y-73280857D01*
X142009714Y-73423714D01*
X141938285Y-73495142D01*
X141795428Y-73566571D01*
X141509714Y-73566571D01*
X141366857Y-73495142D01*
X142795428Y-72066571D02*
X142652571Y-72352285D01*
X143366857Y-73495142D02*
X143509714Y-73566571D01*
X143795428Y-73566571D01*
X143938285Y-73495142D01*
X144009714Y-73352285D01*
X144009714Y-73280857D01*
X143938285Y-73138000D01*
X143795428Y-73066571D01*
X143581142Y-73066571D01*
X143438285Y-72995142D01*
X143366857Y-72852285D01*
X143366857Y-72780857D01*
X143438285Y-72638000D01*
X143581142Y-72566571D01*
X143795428Y-72566571D01*
X143938285Y-72638000D01*
X140116857Y-75402285D02*
X140116857Y-76116571D01*
X139616857Y-74616571D02*
X140116857Y-75402285D01*
X140616857Y-74616571D01*
X141688285Y-76045142D02*
X141545428Y-76116571D01*
X141259714Y-76116571D01*
X141116857Y-76045142D01*
X141045428Y-75902285D01*
X141045428Y-75330857D01*
X141116857Y-75188000D01*
X141259714Y-75116571D01*
X141545428Y-75116571D01*
X141688285Y-75188000D01*
X141759714Y-75330857D01*
X141759714Y-75473714D01*
X141045428Y-75616571D01*
X142402571Y-76116571D02*
X142402571Y-75116571D01*
X142402571Y-75402285D02*
X142474000Y-75259428D01*
X142545428Y-75188000D01*
X142688285Y-75116571D01*
X142831142Y-75116571D01*
X138438285Y-77166571D02*
X138438285Y-78380857D01*
X138509714Y-78523714D01*
X138581142Y-78595142D01*
X138724000Y-78666571D01*
X139009714Y-78666571D01*
X139152571Y-78595142D01*
X139224000Y-78523714D01*
X139295428Y-78380857D01*
X139295428Y-77166571D01*
X140009714Y-77666571D02*
X140009714Y-78666571D01*
X140009714Y-77809428D02*
X140081142Y-77738000D01*
X140224000Y-77666571D01*
X140438285Y-77666571D01*
X140581142Y-77738000D01*
X140652571Y-77880857D01*
X140652571Y-78666571D01*
X142009714Y-78595142D02*
X141866857Y-78666571D01*
X141581142Y-78666571D01*
X141438285Y-78595142D01*
X141366857Y-78523714D01*
X141295428Y-78380857D01*
X141295428Y-77952285D01*
X141366857Y-77809428D01*
X141438285Y-77738000D01*
X141581142Y-77666571D01*
X141866857Y-77666571D01*
X142009714Y-77738000D01*
X142866857Y-78666571D02*
X142724000Y-78595142D01*
X142652571Y-78452285D01*
X142652571Y-77166571D01*
X144009714Y-78595142D02*
X143866857Y-78666571D01*
X143581142Y-78666571D01*
X143438285Y-78595142D01*
X143366857Y-78452285D01*
X143366857Y-77880857D01*
X143438285Y-77738000D01*
X143581142Y-77666571D01*
X143866857Y-77666571D01*
X144009714Y-77738000D01*
X144081142Y-77880857D01*
X144081142Y-78023714D01*
X143366857Y-78166571D01*
D11*
X136517523Y-85542380D02*
X136184190Y-85066190D01*
X135946095Y-85542380D02*
X135946095Y-84542380D01*
X136327047Y-84542380D01*
X136422285Y-84590000D01*
X136469904Y-84637619D01*
X136517523Y-84732857D01*
X136517523Y-84875714D01*
X136469904Y-84970952D01*
X136422285Y-85018571D01*
X136327047Y-85066190D01*
X135946095Y-85066190D01*
X137231809Y-84542380D02*
X137231809Y-85256666D01*
X137184190Y-85399523D01*
X137088952Y-85494761D01*
X136946095Y-85542380D01*
X136850857Y-85542380D01*
X137660380Y-85494761D02*
X137803238Y-85542380D01*
X138041333Y-85542380D01*
X138136571Y-85494761D01*
X138184190Y-85447142D01*
X138231809Y-85351904D01*
X138231809Y-85256666D01*
X138184190Y-85161428D01*
X138136571Y-85113809D01*
X138041333Y-85066190D01*
X137850857Y-85018571D01*
X137755619Y-84970952D01*
X137708000Y-84923333D01*
X137660380Y-84828095D01*
X137660380Y-84732857D01*
X137708000Y-84637619D01*
X137755619Y-84590000D01*
X137850857Y-84542380D01*
X138088952Y-84542380D01*
X138231809Y-84590000D01*
X138422285Y-85637619D02*
X139184190Y-85637619D01*
X139755619Y-85018571D02*
X139898476Y-85066190D01*
X139946095Y-85113809D01*
X139993714Y-85209047D01*
X139993714Y-85351904D01*
X139946095Y-85447142D01*
X139898476Y-85494761D01*
X139803238Y-85542380D01*
X139422285Y-85542380D01*
X139422285Y-84542380D01*
X139755619Y-84542380D01*
X139850857Y-84590000D01*
X139898476Y-84637619D01*
X139946095Y-84732857D01*
X139946095Y-84828095D01*
X139898476Y-84923333D01*
X139850857Y-84970952D01*
X139755619Y-85018571D01*
X139422285Y-85018571D01*
X140612761Y-84542380D02*
X140803238Y-84542380D01*
X140898476Y-84590000D01*
X140993714Y-84685238D01*
X141041333Y-84875714D01*
X141041333Y-85209047D01*
X140993714Y-85399523D01*
X140898476Y-85494761D01*
X140803238Y-85542380D01*
X140612761Y-85542380D01*
X140517523Y-85494761D01*
X140422285Y-85399523D01*
X140374666Y-85209047D01*
X140374666Y-84875714D01*
X140422285Y-84685238D01*
X140517523Y-84590000D01*
X140612761Y-84542380D01*
X141803238Y-85018571D02*
X141946095Y-85066190D01*
X141993714Y-85113809D01*
X142041333Y-85209047D01*
X142041333Y-85351904D01*
X141993714Y-85447142D01*
X141946095Y-85494761D01*
X141850857Y-85542380D01*
X141469904Y-85542380D01*
X141469904Y-84542380D01*
X141803238Y-84542380D01*
X141898476Y-84590000D01*
X141946095Y-84637619D01*
X141993714Y-84732857D01*
X141993714Y-84828095D01*
X141946095Y-84923333D01*
X141898476Y-84970952D01*
X141803238Y-85018571D01*
X141469904Y-85018571D01*
X143136571Y-84875714D02*
X143374666Y-85542380D01*
X143612761Y-84875714D01*
X144517523Y-85542380D02*
X143946095Y-85542380D01*
X144231809Y-85542380D02*
X144231809Y-84542380D01*
X144136571Y-84685238D01*
X144041333Y-84780476D01*
X143946095Y-84828095D01*
D12*
%TO.C,G\u002A\u002A\u002A*%
G36*
X121505470Y-82968502D02*
G01*
X121651789Y-82968789D01*
X121794734Y-82969336D01*
X121931908Y-82970142D01*
X122060912Y-82971207D01*
X122179350Y-82972530D01*
X122284824Y-82974110D01*
X122374936Y-82975945D01*
X122447287Y-82978036D01*
X122499482Y-82980381D01*
X122529121Y-82982979D01*
X122531931Y-82983486D01*
X122600355Y-83009574D01*
X122653599Y-83053678D01*
X122688244Y-83112725D01*
X122693320Y-83128445D01*
X122695922Y-83148186D01*
X122698241Y-83187994D01*
X122700281Y-83248427D01*
X122702050Y-83330040D01*
X122703552Y-83433391D01*
X122704795Y-83559036D01*
X122705783Y-83707533D01*
X122706523Y-83879437D01*
X122707021Y-84075306D01*
X122707283Y-84295696D01*
X122707329Y-84434114D01*
X122707400Y-85689578D01*
X122412125Y-85684072D01*
X122308852Y-85681814D01*
X122227567Y-85678979D01*
X122164856Y-85675016D01*
X122117308Y-85669374D01*
X122081509Y-85661504D01*
X122054048Y-85650856D01*
X122031511Y-85636879D01*
X122010868Y-85619379D01*
X121997380Y-85607082D01*
X121985695Y-85595860D01*
X121975676Y-85583900D01*
X121967189Y-85569388D01*
X121960099Y-85550512D01*
X121954270Y-85525458D01*
X121949568Y-85492413D01*
X121945857Y-85449563D01*
X121943001Y-85395096D01*
X121940867Y-85327198D01*
X121939318Y-85244056D01*
X121938219Y-85143857D01*
X121937436Y-85024787D01*
X121936833Y-84885033D01*
X121936274Y-84722783D01*
X121935904Y-84613750D01*
X121935292Y-84464032D01*
X121934534Y-84321292D01*
X121933652Y-84187635D01*
X121932668Y-84065163D01*
X121931605Y-83955980D01*
X121930483Y-83862192D01*
X121929327Y-83785902D01*
X121928157Y-83729213D01*
X121926996Y-83694230D01*
X121926137Y-83683474D01*
X121913672Y-83661601D01*
X121885759Y-83654924D01*
X121883016Y-83654899D01*
X121852280Y-83661589D01*
X121838808Y-83674988D01*
X121837582Y-83690616D01*
X121836416Y-83729652D01*
X121835326Y-83790104D01*
X121834326Y-83869979D01*
X121833433Y-83967285D01*
X121832662Y-84080030D01*
X121832028Y-84206222D01*
X121831546Y-84343868D01*
X121831233Y-84490977D01*
X121831102Y-84645557D01*
X121831100Y-84671938D01*
X121831100Y-85648800D01*
X121056400Y-85648800D01*
X121056400Y-84667090D01*
X121056305Y-84475084D01*
X121056008Y-84307195D01*
X121055490Y-84162143D01*
X121054730Y-84038645D01*
X121053710Y-83935419D01*
X121052409Y-83851183D01*
X121050808Y-83784657D01*
X121048887Y-83734557D01*
X121046627Y-83699603D01*
X121044008Y-83678512D01*
X121041160Y-83670140D01*
X121012567Y-83656209D01*
X120980313Y-83659113D01*
X120956342Y-83677557D01*
X120955246Y-83679465D01*
X120952314Y-83697956D01*
X120949740Y-83741714D01*
X120947527Y-83810610D01*
X120945676Y-83904512D01*
X120944190Y-84023292D01*
X120943071Y-84166818D01*
X120942320Y-84334960D01*
X120941939Y-84527589D01*
X120941891Y-84609740D01*
X120941682Y-85515450D01*
X120913316Y-85565055D01*
X120891217Y-85598993D01*
X120865942Y-85626093D01*
X120834513Y-85647099D01*
X120793954Y-85662751D01*
X120741288Y-85673792D01*
X120673538Y-85680963D01*
X120587728Y-85685006D01*
X120480881Y-85686662D01*
X120424575Y-85686826D01*
X120180100Y-85686900D01*
X120180100Y-84416394D01*
X120180111Y-84208647D01*
X120180164Y-84024777D01*
X120180288Y-83863259D01*
X120180511Y-83722571D01*
X120180863Y-83601188D01*
X120181372Y-83497587D01*
X120182068Y-83410245D01*
X120182979Y-83337637D01*
X120184135Y-83278240D01*
X120185563Y-83230530D01*
X120187294Y-83192985D01*
X120189355Y-83164079D01*
X120191777Y-83142290D01*
X120194587Y-83126095D01*
X120197815Y-83113968D01*
X120201489Y-83104387D01*
X120205145Y-83096794D01*
X120243370Y-83041221D01*
X120294061Y-83004281D01*
X120359040Y-82982741D01*
X120384222Y-82980113D01*
X120432404Y-82977755D01*
X120501190Y-82975664D01*
X120588182Y-82973841D01*
X120690981Y-82972285D01*
X120807190Y-82970994D01*
X120934412Y-82969969D01*
X121070249Y-82969208D01*
X121212302Y-82968711D01*
X121358175Y-82968476D01*
X121505470Y-82968502D01*
G37*
X121505470Y-82968502D02*
X121651789Y-82968789D01*
X121794734Y-82969336D01*
X121931908Y-82970142D01*
X122060912Y-82971207D01*
X122179350Y-82972530D01*
X122284824Y-82974110D01*
X122374936Y-82975945D01*
X122447287Y-82978036D01*
X122499482Y-82980381D01*
X122529121Y-82982979D01*
X122531931Y-82983486D01*
X122600355Y-83009574D01*
X122653599Y-83053678D01*
X122688244Y-83112725D01*
X122693320Y-83128445D01*
X122695922Y-83148186D01*
X122698241Y-83187994D01*
X122700281Y-83248427D01*
X122702050Y-83330040D01*
X122703552Y-83433391D01*
X122704795Y-83559036D01*
X122705783Y-83707533D01*
X122706523Y-83879437D01*
X122707021Y-84075306D01*
X122707283Y-84295696D01*
X122707329Y-84434114D01*
X122707400Y-85689578D01*
X122412125Y-85684072D01*
X122308852Y-85681814D01*
X122227567Y-85678979D01*
X122164856Y-85675016D01*
X122117308Y-85669374D01*
X122081509Y-85661504D01*
X122054048Y-85650856D01*
X122031511Y-85636879D01*
X122010868Y-85619379D01*
X121997380Y-85607082D01*
X121985695Y-85595860D01*
X121975676Y-85583900D01*
X121967189Y-85569388D01*
X121960099Y-85550512D01*
X121954270Y-85525458D01*
X121949568Y-85492413D01*
X121945857Y-85449563D01*
X121943001Y-85395096D01*
X121940867Y-85327198D01*
X121939318Y-85244056D01*
X121938219Y-85143857D01*
X121937436Y-85024787D01*
X121936833Y-84885033D01*
X121936274Y-84722783D01*
X121935904Y-84613750D01*
X121935292Y-84464032D01*
X121934534Y-84321292D01*
X121933652Y-84187635D01*
X121932668Y-84065163D01*
X121931605Y-83955980D01*
X121930483Y-83862192D01*
X121929327Y-83785902D01*
X121928157Y-83729213D01*
X121926996Y-83694230D01*
X121926137Y-83683474D01*
X121913672Y-83661601D01*
X121885759Y-83654924D01*
X121883016Y-83654899D01*
X121852280Y-83661589D01*
X121838808Y-83674988D01*
X121837582Y-83690616D01*
X121836416Y-83729652D01*
X121835326Y-83790104D01*
X121834326Y-83869979D01*
X121833433Y-83967285D01*
X121832662Y-84080030D01*
X121832028Y-84206222D01*
X121831546Y-84343868D01*
X121831233Y-84490977D01*
X121831102Y-84645557D01*
X121831100Y-84671938D01*
X121831100Y-85648800D01*
X121056400Y-85648800D01*
X121056400Y-84667090D01*
X121056305Y-84475084D01*
X121056008Y-84307195D01*
X121055490Y-84162143D01*
X121054730Y-84038645D01*
X121053710Y-83935419D01*
X121052409Y-83851183D01*
X121050808Y-83784657D01*
X121048887Y-83734557D01*
X121046627Y-83699603D01*
X121044008Y-83678512D01*
X121041160Y-83670140D01*
X121012567Y-83656209D01*
X120980313Y-83659113D01*
X120956342Y-83677557D01*
X120955246Y-83679465D01*
X120952314Y-83697956D01*
X120949740Y-83741714D01*
X120947527Y-83810610D01*
X120945676Y-83904512D01*
X120944190Y-84023292D01*
X120943071Y-84166818D01*
X120942320Y-84334960D01*
X120941939Y-84527589D01*
X120941891Y-84609740D01*
X120941682Y-85515450D01*
X120913316Y-85565055D01*
X120891217Y-85598993D01*
X120865942Y-85626093D01*
X120834513Y-85647099D01*
X120793954Y-85662751D01*
X120741288Y-85673792D01*
X120673538Y-85680963D01*
X120587728Y-85685006D01*
X120480881Y-85686662D01*
X120424575Y-85686826D01*
X120180100Y-85686900D01*
X120180100Y-84416394D01*
X120180111Y-84208647D01*
X120180164Y-84024777D01*
X120180288Y-83863259D01*
X120180511Y-83722571D01*
X120180863Y-83601188D01*
X120181372Y-83497587D01*
X120182068Y-83410245D01*
X120182979Y-83337637D01*
X120184135Y-83278240D01*
X120185563Y-83230530D01*
X120187294Y-83192985D01*
X120189355Y-83164079D01*
X120191777Y-83142290D01*
X120194587Y-83126095D01*
X120197815Y-83113968D01*
X120201489Y-83104387D01*
X120205145Y-83096794D01*
X120243370Y-83041221D01*
X120294061Y-83004281D01*
X120359040Y-82982741D01*
X120384222Y-82980113D01*
X120432404Y-82977755D01*
X120501190Y-82975664D01*
X120588182Y-82973841D01*
X120690981Y-82972285D01*
X120807190Y-82970994D01*
X120934412Y-82969969D01*
X121070249Y-82969208D01*
X121212302Y-82968711D01*
X121358175Y-82968476D01*
X121505470Y-82968502D01*
G36*
X123789670Y-82975467D02*
G01*
X123909018Y-82975585D01*
X124007522Y-82975896D01*
X124087459Y-82976496D01*
X124151108Y-82977479D01*
X124200745Y-82978941D01*
X124238648Y-82980975D01*
X124267096Y-82983678D01*
X124288365Y-82987144D01*
X124304735Y-82991467D01*
X124318482Y-82996742D01*
X124331884Y-83003064D01*
X124333837Y-83004026D01*
X124390359Y-83043672D01*
X124422737Y-83086576D01*
X124453650Y-83140550D01*
X124461342Y-84150200D01*
X123685300Y-84150200D01*
X123685300Y-83917790D01*
X123684967Y-83829651D01*
X123683484Y-83763711D01*
X123680120Y-83716771D01*
X123674145Y-83685632D01*
X123664829Y-83667098D01*
X123651443Y-83657969D01*
X123633255Y-83655048D01*
X123625295Y-83654900D01*
X123608507Y-83657754D01*
X123595504Y-83668157D01*
X123585823Y-83688868D01*
X123579002Y-83722647D01*
X123574582Y-83772253D01*
X123572099Y-83840447D01*
X123571093Y-83929987D01*
X123571000Y-83979576D01*
X123571000Y-84239100D01*
X124460000Y-84239100D01*
X124460000Y-84912200D01*
X123571000Y-84912200D01*
X123571000Y-85686900D01*
X122809000Y-85686900D01*
X122809000Y-84416492D01*
X122809051Y-84202583D01*
X122809217Y-84012690D01*
X122809517Y-83845430D01*
X122809967Y-83699418D01*
X122810588Y-83573270D01*
X122811397Y-83465603D01*
X122812412Y-83375033D01*
X122813651Y-83300175D01*
X122815133Y-83239647D01*
X122816876Y-83192065D01*
X122818899Y-83156043D01*
X122821219Y-83130200D01*
X122823856Y-83113150D01*
X122826323Y-83104624D01*
X122859551Y-83053823D01*
X122909024Y-83012054D01*
X122965634Y-82986801D01*
X122971298Y-82985480D01*
X122993172Y-82983491D01*
X123037781Y-82981632D01*
X123102460Y-82979945D01*
X123184544Y-82978468D01*
X123281370Y-82977240D01*
X123390271Y-82976302D01*
X123508583Y-82975693D01*
X123633642Y-82975452D01*
X123647200Y-82975450D01*
X123789670Y-82975467D01*
G37*
X123789670Y-82975467D02*
X123909018Y-82975585D01*
X124007522Y-82975896D01*
X124087459Y-82976496D01*
X124151108Y-82977479D01*
X124200745Y-82978941D01*
X124238648Y-82980975D01*
X124267096Y-82983678D01*
X124288365Y-82987144D01*
X124304735Y-82991467D01*
X124318482Y-82996742D01*
X124331884Y-83003064D01*
X124333837Y-83004026D01*
X124390359Y-83043672D01*
X124422737Y-83086576D01*
X124453650Y-83140550D01*
X124461342Y-84150200D01*
X123685300Y-84150200D01*
X123685300Y-83917790D01*
X123684967Y-83829651D01*
X123683484Y-83763711D01*
X123680120Y-83716771D01*
X123674145Y-83685632D01*
X123664829Y-83667098D01*
X123651443Y-83657969D01*
X123633255Y-83655048D01*
X123625295Y-83654900D01*
X123608507Y-83657754D01*
X123595504Y-83668157D01*
X123585823Y-83688868D01*
X123579002Y-83722647D01*
X123574582Y-83772253D01*
X123572099Y-83840447D01*
X123571093Y-83929987D01*
X123571000Y-83979576D01*
X123571000Y-84239100D01*
X124460000Y-84239100D01*
X124460000Y-84912200D01*
X123571000Y-84912200D01*
X123571000Y-85686900D01*
X122809000Y-85686900D01*
X122809000Y-84416492D01*
X122809051Y-84202583D01*
X122809217Y-84012690D01*
X122809517Y-83845430D01*
X122809967Y-83699418D01*
X122810588Y-83573270D01*
X122811397Y-83465603D01*
X122812412Y-83375033D01*
X122813651Y-83300175D01*
X122815133Y-83239647D01*
X122816876Y-83192065D01*
X122818899Y-83156043D01*
X122821219Y-83130200D01*
X122823856Y-83113150D01*
X122826323Y-83104624D01*
X122859551Y-83053823D01*
X122909024Y-83012054D01*
X122965634Y-82986801D01*
X122971298Y-82985480D01*
X122993172Y-82983491D01*
X123037781Y-82981632D01*
X123102460Y-82979945D01*
X123184544Y-82978468D01*
X123281370Y-82977240D01*
X123390271Y-82976302D01*
X123508583Y-82975693D01*
X123633642Y-82975452D01*
X123647200Y-82975450D01*
X123789670Y-82975467D01*
G36*
X126199900Y-85686900D02*
G01*
X123672600Y-85686900D01*
X123672600Y-85013800D01*
X126199900Y-85013800D01*
X126199900Y-85686900D01*
G37*
X126199900Y-85686900D02*
X123672600Y-85686900D01*
X123672600Y-85013800D01*
X126199900Y-85013800D01*
X126199900Y-85686900D01*
G36*
X125727082Y-82971288D02*
G01*
X125820988Y-82972878D01*
X125897762Y-82975509D01*
X125959467Y-82979300D01*
X126008169Y-82984369D01*
X126045933Y-82990836D01*
X126074823Y-82998821D01*
X126096906Y-83008441D01*
X126110597Y-83017058D01*
X126135966Y-83042741D01*
X126162214Y-83080063D01*
X126171325Y-83096359D01*
X126181049Y-83116823D01*
X126188281Y-83137478D01*
X126193388Y-83162350D01*
X126196735Y-83195462D01*
X126198691Y-83240841D01*
X126199620Y-83302510D01*
X126199892Y-83384495D01*
X126199900Y-83409940D01*
X126199900Y-83667600D01*
X125437900Y-83667600D01*
X125437900Y-83623976D01*
X125432141Y-83566302D01*
X125414543Y-83530498D01*
X125384625Y-83515715D01*
X125376073Y-83515200D01*
X125353484Y-83517517D01*
X125338447Y-83527273D01*
X125329462Y-83548674D01*
X125325028Y-83585924D01*
X125323645Y-83643229D01*
X125323600Y-83662288D01*
X125323600Y-83769200D01*
X125625225Y-83769273D01*
X125750381Y-83769840D01*
X125852863Y-83771894D01*
X125935381Y-83776067D01*
X126000646Y-83782991D01*
X126051368Y-83793295D01*
X126090258Y-83807613D01*
X126120026Y-83826574D01*
X126143384Y-83850811D01*
X126163043Y-83880955D01*
X126171325Y-83896459D01*
X126179363Y-83912995D01*
X126185733Y-83929647D01*
X126190628Y-83949449D01*
X126194244Y-83975434D01*
X126196772Y-84010637D01*
X126198408Y-84058090D01*
X126199344Y-84120829D01*
X126199776Y-84201886D01*
X126199895Y-84304295D01*
X126199900Y-84343798D01*
X126199755Y-84461621D01*
X126199049Y-84556925D01*
X126197376Y-84632591D01*
X126194331Y-84691498D01*
X126189507Y-84736528D01*
X126182497Y-84770561D01*
X126172897Y-84796477D01*
X126160299Y-84817157D01*
X126144298Y-84835482D01*
X126128439Y-84850691D01*
X126090875Y-84876849D01*
X126046840Y-84896560D01*
X126041150Y-84898245D01*
X126018133Y-84901043D01*
X125972914Y-84903507D01*
X125908550Y-84905636D01*
X125828100Y-84907425D01*
X125734621Y-84908872D01*
X125631170Y-84909973D01*
X125520806Y-84910724D01*
X125406584Y-84911124D01*
X125291564Y-84911168D01*
X125178802Y-84910854D01*
X125071356Y-84910177D01*
X124972285Y-84909136D01*
X124884644Y-84907726D01*
X124811492Y-84905945D01*
X124755887Y-84903789D01*
X124720886Y-84901255D01*
X124711350Y-84899647D01*
X124654944Y-84872684D01*
X124605172Y-84831227D01*
X124577462Y-84793723D01*
X124569593Y-84775291D01*
X124563574Y-84750339D01*
X124559067Y-84715153D01*
X124555736Y-84666018D01*
X124553245Y-84599222D01*
X124551258Y-84511049D01*
X124551105Y-84502625D01*
X124546603Y-84251800D01*
X125323600Y-84251800D01*
X125323600Y-84315572D01*
X125325196Y-84354818D01*
X125332301Y-84376994D01*
X125348389Y-84390348D01*
X125356841Y-84394490D01*
X125382869Y-84402705D01*
X125401438Y-84394175D01*
X125413991Y-84380111D01*
X125427551Y-84356615D01*
X125435033Y-84323612D01*
X125437790Y-84274162D01*
X125437900Y-84257458D01*
X125437900Y-84164330D01*
X125072775Y-84160440D01*
X124958594Y-84159083D01*
X124866855Y-84157289D01*
X124794601Y-84154436D01*
X124738874Y-84149900D01*
X124696717Y-84143057D01*
X124665173Y-84133285D01*
X124641283Y-84119959D01*
X124622091Y-84102457D01*
X124604640Y-84080155D01*
X124590120Y-84058705D01*
X124555250Y-84006019D01*
X124555250Y-83573284D01*
X124555312Y-83456638D01*
X124555601Y-83362572D01*
X124556273Y-83288265D01*
X124557482Y-83230896D01*
X124559383Y-83187646D01*
X124562132Y-83155694D01*
X124565883Y-83132219D01*
X124570791Y-83114402D01*
X124577012Y-83099421D01*
X124581815Y-83089904D01*
X124616529Y-83043931D01*
X124669606Y-83007736D01*
X124670346Y-83007354D01*
X124732311Y-82975450D01*
X125321910Y-82971570D01*
X125479608Y-82970753D01*
X125613976Y-82970619D01*
X125727082Y-82971288D01*
G37*
X125727082Y-82971288D02*
X125820988Y-82972878D01*
X125897762Y-82975509D01*
X125959467Y-82979300D01*
X126008169Y-82984369D01*
X126045933Y-82990836D01*
X126074823Y-82998821D01*
X126096906Y-83008441D01*
X126110597Y-83017058D01*
X126135966Y-83042741D01*
X126162214Y-83080063D01*
X126171325Y-83096359D01*
X126181049Y-83116823D01*
X126188281Y-83137478D01*
X126193388Y-83162350D01*
X126196735Y-83195462D01*
X126198691Y-83240841D01*
X126199620Y-83302510D01*
X126199892Y-83384495D01*
X126199900Y-83409940D01*
X126199900Y-83667600D01*
X125437900Y-83667600D01*
X125437900Y-83623976D01*
X125432141Y-83566302D01*
X125414543Y-83530498D01*
X125384625Y-83515715D01*
X125376073Y-83515200D01*
X125353484Y-83517517D01*
X125338447Y-83527273D01*
X125329462Y-83548674D01*
X125325028Y-83585924D01*
X125323645Y-83643229D01*
X125323600Y-83662288D01*
X125323600Y-83769200D01*
X125625225Y-83769273D01*
X125750381Y-83769840D01*
X125852863Y-83771894D01*
X125935381Y-83776067D01*
X126000646Y-83782991D01*
X126051368Y-83793295D01*
X126090258Y-83807613D01*
X126120026Y-83826574D01*
X126143384Y-83850811D01*
X126163043Y-83880955D01*
X126171325Y-83896459D01*
X126179363Y-83912995D01*
X126185733Y-83929647D01*
X126190628Y-83949449D01*
X126194244Y-83975434D01*
X126196772Y-84010637D01*
X126198408Y-84058090D01*
X126199344Y-84120829D01*
X126199776Y-84201886D01*
X126199895Y-84304295D01*
X126199900Y-84343798D01*
X126199755Y-84461621D01*
X126199049Y-84556925D01*
X126197376Y-84632591D01*
X126194331Y-84691498D01*
X126189507Y-84736528D01*
X126182497Y-84770561D01*
X126172897Y-84796477D01*
X126160299Y-84817157D01*
X126144298Y-84835482D01*
X126128439Y-84850691D01*
X126090875Y-84876849D01*
X126046840Y-84896560D01*
X126041150Y-84898245D01*
X126018133Y-84901043D01*
X125972914Y-84903507D01*
X125908550Y-84905636D01*
X125828100Y-84907425D01*
X125734621Y-84908872D01*
X125631170Y-84909973D01*
X125520806Y-84910724D01*
X125406584Y-84911124D01*
X125291564Y-84911168D01*
X125178802Y-84910854D01*
X125071356Y-84910177D01*
X124972285Y-84909136D01*
X124884644Y-84907726D01*
X124811492Y-84905945D01*
X124755887Y-84903789D01*
X124720886Y-84901255D01*
X124711350Y-84899647D01*
X124654944Y-84872684D01*
X124605172Y-84831227D01*
X124577462Y-84793723D01*
X124569593Y-84775291D01*
X124563574Y-84750339D01*
X124559067Y-84715153D01*
X124555736Y-84666018D01*
X124553245Y-84599222D01*
X124551258Y-84511049D01*
X124551105Y-84502625D01*
X124546603Y-84251800D01*
X125323600Y-84251800D01*
X125323600Y-84315572D01*
X125325196Y-84354818D01*
X125332301Y-84376994D01*
X125348389Y-84390348D01*
X125356841Y-84394490D01*
X125382869Y-84402705D01*
X125401438Y-84394175D01*
X125413991Y-84380111D01*
X125427551Y-84356615D01*
X125435033Y-84323612D01*
X125437790Y-84274162D01*
X125437900Y-84257458D01*
X125437900Y-84164330D01*
X125072775Y-84160440D01*
X124958594Y-84159083D01*
X124866855Y-84157289D01*
X124794601Y-84154436D01*
X124738874Y-84149900D01*
X124696717Y-84143057D01*
X124665173Y-84133285D01*
X124641283Y-84119959D01*
X124622091Y-84102457D01*
X124604640Y-84080155D01*
X124590120Y-84058705D01*
X124555250Y-84006019D01*
X124555250Y-83573284D01*
X124555312Y-83456638D01*
X124555601Y-83362572D01*
X124556273Y-83288265D01*
X124557482Y-83230896D01*
X124559383Y-83187646D01*
X124562132Y-83155694D01*
X124565883Y-83132219D01*
X124570791Y-83114402D01*
X124577012Y-83099421D01*
X124581815Y-83089904D01*
X124616529Y-83043931D01*
X124669606Y-83007736D01*
X124670346Y-83007354D01*
X124732311Y-82975450D01*
X125321910Y-82971570D01*
X125479608Y-82970753D01*
X125613976Y-82970619D01*
X125727082Y-82971288D01*
%TD*%
D13*
%TO.P,RJS1,1*%
%TO.N,Net-(J1-Pad1)*%
X138755000Y-83080000D03*
%TO.P,RJS1,2*%
%TO.N,Net-(J1-Pad2)*%
X141255000Y-82260000D03*
%TO.P,RJS1,3*%
%TO.N,Net-(J1-Pad3)*%
X147115000Y-79030000D03*
%TO.P,RJS1,4*%
%TO.N,Net-(J1-Pad4)*%
X148055000Y-76780000D03*
%TO.P,RJS1,5*%
%TO.N,Net-(J1-Pad5)*%
X148055000Y-73780000D03*
%TO.P,RJS1,6*%
%TO.N,Net-(J1-Pad6)*%
X141755000Y-67480000D03*
%TO.P,RJS1,7*%
%TO.N,Net-(J2-Pad2)*%
X139255000Y-69500000D03*
%TO.P,RJS1,8*%
%TO.N,Net-(J2-Pad1)*%
X138755000Y-67480000D03*
%TO.P,RJS1,9*%
%TO.N,Net-(J2-Pad3)*%
X132455000Y-73780000D03*
%TO.P,RJS1,10*%
%TO.N,Net-(J2-Pad4)*%
X132455000Y-76780000D03*
%TO.P,RJS1,11*%
%TO.N,Net-(RJS1-Pad11)*%
X136455000Y-76780000D03*
%TD*%
D14*
%TO.P,R12,1*%
%TO.N,Net-(J2-Pad5)*%
X125476000Y-68796000D03*
%TO.P,R12,2*%
%TO.N,Net-(J2-Pad4)*%
X125476000Y-70396000D03*
%TD*%
%TO.P,R13,1*%
%TO.N,Net-(J2-Pad6)*%
X128524000Y-81064000D03*
%TO.P,R13,2*%
%TO.N,Net-(J2-Pad4)*%
X128524000Y-79464000D03*
%TD*%
%TO.P,R14,1*%
%TO.N,Net-(J2-Pad5)*%
X128524000Y-68796000D03*
%TO.P,R14,2*%
%TO.N,Net-(J2-Pad3)*%
X128524000Y-70396000D03*
%TD*%
%TO.P,R11,1*%
%TO.N,Net-(J2-Pad6)*%
X125476000Y-81064000D03*
%TO.P,R11,2*%
%TO.N,Net-(J2-Pad3)*%
X125476000Y-79464000D03*
%TD*%
%TO.P,R10,1*%
%TO.N,Net-(J1-Pad1)*%
X157988000Y-67856000D03*
%TO.P,R10,2*%
%TO.N,Net-(J2-Pad5)*%
X157988000Y-66256000D03*
%TD*%
%TO.P,R9,1*%
%TO.N,Net-(J1-Pad1)*%
X157988000Y-82512000D03*
%TO.P,R9,2*%
%TO.N,Net-(J2-Pad6)*%
X157988000Y-84112000D03*
%TD*%
%TO.P,R8,1*%
%TO.N,Net-(J1-Pad2)*%
X156464000Y-72428000D03*
%TO.P,R8,2*%
%TO.N,Net-(J2-Pad5)*%
X156464000Y-70828000D03*
%TD*%
%TO.P,R7,1*%
%TO.N,Net-(J1-Pad2)*%
X156464000Y-76924000D03*
%TO.P,R7,2*%
%TO.N,Net-(J2-Pad6)*%
X156464000Y-78524000D03*
%TD*%
%TO.P,R6,1*%
%TO.N,Net-(J1-Pad4)*%
X153416000Y-72428000D03*
%TO.P,R6,2*%
%TO.N,Net-(J2-Pad5)*%
X153416000Y-70828000D03*
%TD*%
%TO.P,R5,1*%
%TO.N,Net-(J1-Pad4)*%
X153416000Y-76924000D03*
%TO.P,R5,2*%
%TO.N,Net-(J2-Pad6)*%
X153416000Y-78524000D03*
%TD*%
%TO.P,R4,1*%
%TO.N,Net-(J1-Pad5)*%
X154940000Y-67856000D03*
%TO.P,R4,2*%
%TO.N,Net-(J2-Pad5)*%
X154940000Y-66256000D03*
%TD*%
%TO.P,R3,1*%
%TO.N,Net-(J1-Pad5)*%
X154940000Y-82512000D03*
%TO.P,R3,2*%
%TO.N,Net-(J2-Pad6)*%
X154940000Y-84112000D03*
%TD*%
%TO.P,R2,1*%
%TO.N,Net-(J1-Pad6)*%
X151892000Y-67856000D03*
%TO.P,R2,2*%
%TO.N,Net-(J2-Pad5)*%
X151892000Y-66256000D03*
%TD*%
%TO.P,R1,1*%
%TO.N,Net-(J1-Pad6)*%
X151892000Y-82512000D03*
%TO.P,R1,2*%
%TO.N,Net-(J2-Pad6)*%
X151892000Y-84112000D03*
%TD*%
D15*
%TO.P,J2,1*%
%TO.N,Net-(J2-Pad1)*%
X121920000Y-68580000D03*
D16*
%TO.P,J2,2*%
%TO.N,Net-(J2-Pad2)*%
X121920000Y-71120000D03*
%TO.P,J2,3*%
%TO.N,Net-(J2-Pad3)*%
X121920000Y-73660000D03*
%TO.P,J2,4*%
%TO.N,Net-(J2-Pad4)*%
X121920000Y-76200000D03*
%TO.P,J2,5*%
%TO.N,Net-(J2-Pad5)*%
X121920000Y-78740000D03*
%TO.P,J2,6*%
%TO.N,Net-(J2-Pad6)*%
X121920000Y-81280000D03*
%TD*%
D15*
%TO.P,J1,1*%
%TO.N,Net-(J1-Pad1)*%
X162560000Y-81280000D03*
D16*
%TO.P,J1,2*%
%TO.N,Net-(J1-Pad2)*%
X162560000Y-78740000D03*
%TO.P,J1,3*%
%TO.N,Net-(J1-Pad3)*%
X162560000Y-76200000D03*
%TO.P,J1,4*%
%TO.N,Net-(J1-Pad4)*%
X162560000Y-73660000D03*
%TO.P,J1,5*%
%TO.N,Net-(J1-Pad5)*%
X162560000Y-71120000D03*
%TO.P,J1,6*%
%TO.N,Net-(J1-Pad6)*%
X162560000Y-68580000D03*
%TD*%
D17*
%TO.N,Net-(J1-Pad1)*%
X162560000Y-81280000D02*
X162560000Y-80092200D01*
X162560000Y-80092200D02*
X162931200Y-80092200D01*
X162931200Y-80092200D02*
X163772600Y-79250800D01*
X163772600Y-79250800D02*
X163772600Y-70644000D01*
X163772600Y-70644000D02*
X163060700Y-69932100D01*
X163060700Y-69932100D02*
X162009000Y-69932100D01*
X162009000Y-69932100D02*
X159932900Y-67856000D01*
X159932900Y-67856000D02*
X157988000Y-67856000D01*
X162560000Y-81280000D02*
X158444700Y-81280000D01*
X158444700Y-81280000D02*
X157988000Y-81736700D01*
X157988000Y-82512000D02*
X157988000Y-81736700D01*
%TO.N,Net-(J1-Pad2)*%
X156464000Y-76924000D02*
X156464000Y-77699300D01*
X162560000Y-78740000D02*
X161519300Y-77699300D01*
X161519300Y-77699300D02*
X156464000Y-77699300D01*
X156464000Y-76924000D02*
X156464000Y-72428000D01*
%TO.N,Net-(J1-Pad4)*%
X153416000Y-76536300D02*
X148298700Y-76536300D01*
X148298700Y-76536300D02*
X148055000Y-76780000D01*
X153416000Y-76536300D02*
X153416000Y-76148700D01*
X153416000Y-76924000D02*
X153416000Y-76536300D01*
X153416000Y-72428000D02*
X153416000Y-71652700D01*
X162560000Y-73660000D02*
X160552700Y-71652700D01*
X160552700Y-71652700D02*
X153416000Y-71652700D01*
X153416000Y-76148700D02*
X153416000Y-73203300D01*
X153416000Y-72428000D02*
X153416000Y-73203300D01*
%TO.N,Net-(J1-Pad5)*%
X154940000Y-82512000D02*
X154940000Y-81736700D01*
X148055000Y-73780000D02*
X146962500Y-74872500D01*
X146962500Y-74872500D02*
X146962500Y-77230500D01*
X146962500Y-77230500D02*
X151468700Y-81736700D01*
X151468700Y-81736700D02*
X154940000Y-81736700D01*
X154940000Y-67856000D02*
X154940000Y-68631300D01*
X162560000Y-71120000D02*
X160071300Y-68631300D01*
X160071300Y-68631300D02*
X154940000Y-68631300D01*
%TO.N,Net-(J1-Pad6)*%
X151892000Y-82512000D02*
X149061600Y-82512000D01*
X149061600Y-82512000D02*
X146037500Y-79487900D01*
X146037500Y-79487900D02*
X146037500Y-72910200D01*
X146037500Y-72910200D02*
X151091700Y-67856000D01*
X151892000Y-67856000D02*
X151091700Y-67856000D01*
X141755000Y-67480000D02*
X150715700Y-67480000D01*
X150715700Y-67480000D02*
X151091700Y-67856000D01*
%TO.N,Net-(J2-Pad3)*%
X128524000Y-70396000D02*
X128524000Y-71171300D01*
X131146400Y-73018300D02*
X129299300Y-71171300D01*
X129299300Y-71171300D02*
X128524000Y-71171300D01*
X132455000Y-73780000D02*
X131908000Y-73780000D01*
X131908000Y-73780000D02*
X131146400Y-73018300D01*
X125476000Y-78688700D02*
X131146400Y-73018300D01*
X125476000Y-79464000D02*
X125476000Y-78688700D01*
%TO.N,Net-(J2-Pad4)*%
X121920000Y-76200000D02*
X125476000Y-72644000D01*
X125476000Y-72644000D02*
X125476000Y-70396000D01*
X128524000Y-79464000D02*
X129771000Y-79464000D01*
X129771000Y-79464000D02*
X132455000Y-76780000D01*
%TO.N,Net-(J2-Pad5)*%
X153416000Y-66256000D02*
X151892000Y-66256000D01*
X154940000Y-66256000D02*
X153416000Y-66256000D01*
X153416000Y-66256000D02*
X153416000Y-70828000D01*
X128524000Y-68796000D02*
X128524000Y-68020700D01*
X151892000Y-66256000D02*
X130288700Y-66256000D01*
X130288700Y-66256000D02*
X128524000Y-68020700D01*
X126276300Y-68796000D02*
X126276300Y-74383700D01*
X126276300Y-74383700D02*
X121920000Y-78740000D01*
X126276300Y-68796000D02*
X128524000Y-68796000D01*
X126163700Y-68796000D02*
X126276300Y-68796000D01*
X125476000Y-68796000D02*
X126163700Y-68796000D01*
X153416000Y-70828000D02*
X156464000Y-70828000D01*
X154940000Y-66256000D02*
X157988000Y-66256000D01*
%TO.N,Net-(J2-Pad6)*%
X153416000Y-78524000D02*
X154216300Y-78524000D01*
X156464000Y-78911600D02*
X154603900Y-78911600D01*
X154603900Y-78911600D02*
X154216300Y-78524000D01*
X156464000Y-78911600D02*
X156464000Y-79299300D01*
X156464000Y-78524000D02*
X156464000Y-78911600D01*
X156464000Y-84112000D02*
X157988000Y-84112000D01*
X154940000Y-84112000D02*
X156464000Y-84112000D01*
X156464000Y-84112000D02*
X156464000Y-79299300D01*
X125476000Y-81064000D02*
X124675700Y-81064000D01*
X121920000Y-81280000D02*
X124459700Y-81280000D01*
X124459700Y-81280000D02*
X124675700Y-81064000D01*
X125476000Y-81064000D02*
X128524000Y-81064000D01*
X151892000Y-84112000D02*
X151091700Y-84112000D01*
X151091700Y-84112000D02*
X151013600Y-84190100D01*
X151013600Y-84190100D02*
X130874800Y-84190100D01*
X130874800Y-84190100D02*
X128524000Y-81839300D01*
X154940000Y-84112000D02*
X151892000Y-84112000D01*
X128524000Y-81064000D02*
X128524000Y-81839300D01*
%TD*%
M02*
