%TF.GenerationSoftware,KiCad,Pcbnew,(5.1.9)-1*%
%TF.CreationDate,2021-03-10T13:48:37-05:00*%
%TF.ProjectId,RKJXT1F42001_Breakout,524b4a58-5431-4463-9432-3030315f4272,rev?*%
%TF.SameCoordinates,Original*%
%TF.FileFunction,Legend,Top*%
%TF.FilePolarity,Positive*%
%FSLAX46Y46*%
G04 Gerber Fmt 4.6, Leading zero omitted, Abs format (unit mm)*
G04 Created by KiCad (PCBNEW (5.1.9)-1) date 2021-03-10 13:48:37*
%MOMM*%
%LPD*%
G01*
G04 APERTURE LIST*
%ADD10C,0.010000*%
%ADD11C,0.100000*%
%ADD12C,0.200000*%
%ADD13C,0.150000*%
G04 APERTURE END LIST*
D10*
%TO.C,G\u002A\u002A\u002A*%
G36*
X125727082Y-82971288D02*
G01*
X125820988Y-82972878D01*
X125897762Y-82975509D01*
X125959467Y-82979300D01*
X126008169Y-82984369D01*
X126045933Y-82990836D01*
X126074823Y-82998821D01*
X126096906Y-83008441D01*
X126110597Y-83017058D01*
X126135966Y-83042741D01*
X126162214Y-83080063D01*
X126171325Y-83096359D01*
X126181049Y-83116823D01*
X126188281Y-83137478D01*
X126193388Y-83162350D01*
X126196735Y-83195462D01*
X126198691Y-83240841D01*
X126199620Y-83302510D01*
X126199892Y-83384495D01*
X126199900Y-83409940D01*
X126199900Y-83667600D01*
X125437900Y-83667600D01*
X125437900Y-83623976D01*
X125432141Y-83566302D01*
X125414543Y-83530498D01*
X125384625Y-83515715D01*
X125376073Y-83515200D01*
X125353484Y-83517517D01*
X125338447Y-83527273D01*
X125329462Y-83548674D01*
X125325028Y-83585924D01*
X125323645Y-83643229D01*
X125323600Y-83662288D01*
X125323600Y-83769200D01*
X125625225Y-83769273D01*
X125750381Y-83769840D01*
X125852863Y-83771894D01*
X125935381Y-83776067D01*
X126000646Y-83782991D01*
X126051368Y-83793295D01*
X126090258Y-83807613D01*
X126120026Y-83826574D01*
X126143384Y-83850811D01*
X126163043Y-83880955D01*
X126171325Y-83896459D01*
X126179363Y-83912995D01*
X126185733Y-83929647D01*
X126190628Y-83949449D01*
X126194244Y-83975434D01*
X126196772Y-84010637D01*
X126198408Y-84058090D01*
X126199344Y-84120829D01*
X126199776Y-84201886D01*
X126199895Y-84304295D01*
X126199900Y-84343798D01*
X126199755Y-84461621D01*
X126199049Y-84556925D01*
X126197376Y-84632591D01*
X126194331Y-84691498D01*
X126189507Y-84736528D01*
X126182497Y-84770561D01*
X126172897Y-84796477D01*
X126160299Y-84817157D01*
X126144298Y-84835482D01*
X126128439Y-84850691D01*
X126090875Y-84876849D01*
X126046840Y-84896560D01*
X126041150Y-84898245D01*
X126018133Y-84901043D01*
X125972914Y-84903507D01*
X125908550Y-84905636D01*
X125828100Y-84907425D01*
X125734621Y-84908872D01*
X125631170Y-84909973D01*
X125520806Y-84910724D01*
X125406584Y-84911124D01*
X125291564Y-84911168D01*
X125178802Y-84910854D01*
X125071356Y-84910177D01*
X124972285Y-84909136D01*
X124884644Y-84907726D01*
X124811492Y-84905945D01*
X124755887Y-84903789D01*
X124720886Y-84901255D01*
X124711350Y-84899647D01*
X124654944Y-84872684D01*
X124605172Y-84831227D01*
X124577462Y-84793723D01*
X124569593Y-84775291D01*
X124563574Y-84750339D01*
X124559067Y-84715153D01*
X124555736Y-84666018D01*
X124553245Y-84599222D01*
X124551258Y-84511049D01*
X124551105Y-84502625D01*
X124546603Y-84251800D01*
X125323600Y-84251800D01*
X125323600Y-84315572D01*
X125325196Y-84354818D01*
X125332301Y-84376994D01*
X125348389Y-84390348D01*
X125356841Y-84394490D01*
X125382869Y-84402705D01*
X125401438Y-84394175D01*
X125413991Y-84380111D01*
X125427551Y-84356615D01*
X125435033Y-84323612D01*
X125437790Y-84274162D01*
X125437900Y-84257458D01*
X125437900Y-84164330D01*
X125072775Y-84160440D01*
X124958594Y-84159083D01*
X124866855Y-84157289D01*
X124794601Y-84154436D01*
X124738874Y-84149900D01*
X124696717Y-84143057D01*
X124665173Y-84133285D01*
X124641283Y-84119959D01*
X124622091Y-84102457D01*
X124604640Y-84080155D01*
X124590120Y-84058705D01*
X124555250Y-84006019D01*
X124555250Y-83573284D01*
X124555312Y-83456638D01*
X124555601Y-83362572D01*
X124556273Y-83288265D01*
X124557482Y-83230896D01*
X124559383Y-83187646D01*
X124562132Y-83155694D01*
X124565883Y-83132219D01*
X124570791Y-83114402D01*
X124577012Y-83099421D01*
X124581815Y-83089904D01*
X124616529Y-83043931D01*
X124669606Y-83007736D01*
X124670346Y-83007354D01*
X124732311Y-82975450D01*
X125321910Y-82971570D01*
X125479608Y-82970753D01*
X125613976Y-82970619D01*
X125727082Y-82971288D01*
G37*
X125727082Y-82971288D02*
X125820988Y-82972878D01*
X125897762Y-82975509D01*
X125959467Y-82979300D01*
X126008169Y-82984369D01*
X126045933Y-82990836D01*
X126074823Y-82998821D01*
X126096906Y-83008441D01*
X126110597Y-83017058D01*
X126135966Y-83042741D01*
X126162214Y-83080063D01*
X126171325Y-83096359D01*
X126181049Y-83116823D01*
X126188281Y-83137478D01*
X126193388Y-83162350D01*
X126196735Y-83195462D01*
X126198691Y-83240841D01*
X126199620Y-83302510D01*
X126199892Y-83384495D01*
X126199900Y-83409940D01*
X126199900Y-83667600D01*
X125437900Y-83667600D01*
X125437900Y-83623976D01*
X125432141Y-83566302D01*
X125414543Y-83530498D01*
X125384625Y-83515715D01*
X125376073Y-83515200D01*
X125353484Y-83517517D01*
X125338447Y-83527273D01*
X125329462Y-83548674D01*
X125325028Y-83585924D01*
X125323645Y-83643229D01*
X125323600Y-83662288D01*
X125323600Y-83769200D01*
X125625225Y-83769273D01*
X125750381Y-83769840D01*
X125852863Y-83771894D01*
X125935381Y-83776067D01*
X126000646Y-83782991D01*
X126051368Y-83793295D01*
X126090258Y-83807613D01*
X126120026Y-83826574D01*
X126143384Y-83850811D01*
X126163043Y-83880955D01*
X126171325Y-83896459D01*
X126179363Y-83912995D01*
X126185733Y-83929647D01*
X126190628Y-83949449D01*
X126194244Y-83975434D01*
X126196772Y-84010637D01*
X126198408Y-84058090D01*
X126199344Y-84120829D01*
X126199776Y-84201886D01*
X126199895Y-84304295D01*
X126199900Y-84343798D01*
X126199755Y-84461621D01*
X126199049Y-84556925D01*
X126197376Y-84632591D01*
X126194331Y-84691498D01*
X126189507Y-84736528D01*
X126182497Y-84770561D01*
X126172897Y-84796477D01*
X126160299Y-84817157D01*
X126144298Y-84835482D01*
X126128439Y-84850691D01*
X126090875Y-84876849D01*
X126046840Y-84896560D01*
X126041150Y-84898245D01*
X126018133Y-84901043D01*
X125972914Y-84903507D01*
X125908550Y-84905636D01*
X125828100Y-84907425D01*
X125734621Y-84908872D01*
X125631170Y-84909973D01*
X125520806Y-84910724D01*
X125406584Y-84911124D01*
X125291564Y-84911168D01*
X125178802Y-84910854D01*
X125071356Y-84910177D01*
X124972285Y-84909136D01*
X124884644Y-84907726D01*
X124811492Y-84905945D01*
X124755887Y-84903789D01*
X124720886Y-84901255D01*
X124711350Y-84899647D01*
X124654944Y-84872684D01*
X124605172Y-84831227D01*
X124577462Y-84793723D01*
X124569593Y-84775291D01*
X124563574Y-84750339D01*
X124559067Y-84715153D01*
X124555736Y-84666018D01*
X124553245Y-84599222D01*
X124551258Y-84511049D01*
X124551105Y-84502625D01*
X124546603Y-84251800D01*
X125323600Y-84251800D01*
X125323600Y-84315572D01*
X125325196Y-84354818D01*
X125332301Y-84376994D01*
X125348389Y-84390348D01*
X125356841Y-84394490D01*
X125382869Y-84402705D01*
X125401438Y-84394175D01*
X125413991Y-84380111D01*
X125427551Y-84356615D01*
X125435033Y-84323612D01*
X125437790Y-84274162D01*
X125437900Y-84257458D01*
X125437900Y-84164330D01*
X125072775Y-84160440D01*
X124958594Y-84159083D01*
X124866855Y-84157289D01*
X124794601Y-84154436D01*
X124738874Y-84149900D01*
X124696717Y-84143057D01*
X124665173Y-84133285D01*
X124641283Y-84119959D01*
X124622091Y-84102457D01*
X124604640Y-84080155D01*
X124590120Y-84058705D01*
X124555250Y-84006019D01*
X124555250Y-83573284D01*
X124555312Y-83456638D01*
X124555601Y-83362572D01*
X124556273Y-83288265D01*
X124557482Y-83230896D01*
X124559383Y-83187646D01*
X124562132Y-83155694D01*
X124565883Y-83132219D01*
X124570791Y-83114402D01*
X124577012Y-83099421D01*
X124581815Y-83089904D01*
X124616529Y-83043931D01*
X124669606Y-83007736D01*
X124670346Y-83007354D01*
X124732311Y-82975450D01*
X125321910Y-82971570D01*
X125479608Y-82970753D01*
X125613976Y-82970619D01*
X125727082Y-82971288D01*
G36*
X126199900Y-85686900D02*
G01*
X123672600Y-85686900D01*
X123672600Y-85013800D01*
X126199900Y-85013800D01*
X126199900Y-85686900D01*
G37*
X126199900Y-85686900D02*
X123672600Y-85686900D01*
X123672600Y-85013800D01*
X126199900Y-85013800D01*
X126199900Y-85686900D01*
G36*
X123789670Y-82975467D02*
G01*
X123909018Y-82975585D01*
X124007522Y-82975896D01*
X124087459Y-82976496D01*
X124151108Y-82977479D01*
X124200745Y-82978941D01*
X124238648Y-82980975D01*
X124267096Y-82983678D01*
X124288365Y-82987144D01*
X124304735Y-82991467D01*
X124318482Y-82996742D01*
X124331884Y-83003064D01*
X124333837Y-83004026D01*
X124390359Y-83043672D01*
X124422737Y-83086576D01*
X124453650Y-83140550D01*
X124461342Y-84150200D01*
X123685300Y-84150200D01*
X123685300Y-83917790D01*
X123684967Y-83829651D01*
X123683484Y-83763711D01*
X123680120Y-83716771D01*
X123674145Y-83685632D01*
X123664829Y-83667098D01*
X123651443Y-83657969D01*
X123633255Y-83655048D01*
X123625295Y-83654900D01*
X123608507Y-83657754D01*
X123595504Y-83668157D01*
X123585823Y-83688868D01*
X123579002Y-83722647D01*
X123574582Y-83772253D01*
X123572099Y-83840447D01*
X123571093Y-83929987D01*
X123571000Y-83979576D01*
X123571000Y-84239100D01*
X124460000Y-84239100D01*
X124460000Y-84912200D01*
X123571000Y-84912200D01*
X123571000Y-85686900D01*
X122809000Y-85686900D01*
X122809000Y-84416492D01*
X122809051Y-84202583D01*
X122809217Y-84012690D01*
X122809517Y-83845430D01*
X122809967Y-83699418D01*
X122810588Y-83573270D01*
X122811397Y-83465603D01*
X122812412Y-83375033D01*
X122813651Y-83300175D01*
X122815133Y-83239647D01*
X122816876Y-83192065D01*
X122818899Y-83156043D01*
X122821219Y-83130200D01*
X122823856Y-83113150D01*
X122826323Y-83104624D01*
X122859551Y-83053823D01*
X122909024Y-83012054D01*
X122965634Y-82986801D01*
X122971298Y-82985480D01*
X122993172Y-82983491D01*
X123037781Y-82981632D01*
X123102460Y-82979945D01*
X123184544Y-82978468D01*
X123281370Y-82977240D01*
X123390271Y-82976302D01*
X123508583Y-82975693D01*
X123633642Y-82975452D01*
X123647200Y-82975450D01*
X123789670Y-82975467D01*
G37*
X123789670Y-82975467D02*
X123909018Y-82975585D01*
X124007522Y-82975896D01*
X124087459Y-82976496D01*
X124151108Y-82977479D01*
X124200745Y-82978941D01*
X124238648Y-82980975D01*
X124267096Y-82983678D01*
X124288365Y-82987144D01*
X124304735Y-82991467D01*
X124318482Y-82996742D01*
X124331884Y-83003064D01*
X124333837Y-83004026D01*
X124390359Y-83043672D01*
X124422737Y-83086576D01*
X124453650Y-83140550D01*
X124461342Y-84150200D01*
X123685300Y-84150200D01*
X123685300Y-83917790D01*
X123684967Y-83829651D01*
X123683484Y-83763711D01*
X123680120Y-83716771D01*
X123674145Y-83685632D01*
X123664829Y-83667098D01*
X123651443Y-83657969D01*
X123633255Y-83655048D01*
X123625295Y-83654900D01*
X123608507Y-83657754D01*
X123595504Y-83668157D01*
X123585823Y-83688868D01*
X123579002Y-83722647D01*
X123574582Y-83772253D01*
X123572099Y-83840447D01*
X123571093Y-83929987D01*
X123571000Y-83979576D01*
X123571000Y-84239100D01*
X124460000Y-84239100D01*
X124460000Y-84912200D01*
X123571000Y-84912200D01*
X123571000Y-85686900D01*
X122809000Y-85686900D01*
X122809000Y-84416492D01*
X122809051Y-84202583D01*
X122809217Y-84012690D01*
X122809517Y-83845430D01*
X122809967Y-83699418D01*
X122810588Y-83573270D01*
X122811397Y-83465603D01*
X122812412Y-83375033D01*
X122813651Y-83300175D01*
X122815133Y-83239647D01*
X122816876Y-83192065D01*
X122818899Y-83156043D01*
X122821219Y-83130200D01*
X122823856Y-83113150D01*
X122826323Y-83104624D01*
X122859551Y-83053823D01*
X122909024Y-83012054D01*
X122965634Y-82986801D01*
X122971298Y-82985480D01*
X122993172Y-82983491D01*
X123037781Y-82981632D01*
X123102460Y-82979945D01*
X123184544Y-82978468D01*
X123281370Y-82977240D01*
X123390271Y-82976302D01*
X123508583Y-82975693D01*
X123633642Y-82975452D01*
X123647200Y-82975450D01*
X123789670Y-82975467D01*
G36*
X121505470Y-82968502D02*
G01*
X121651789Y-82968789D01*
X121794734Y-82969336D01*
X121931908Y-82970142D01*
X122060912Y-82971207D01*
X122179350Y-82972530D01*
X122284824Y-82974110D01*
X122374936Y-82975945D01*
X122447287Y-82978036D01*
X122499482Y-82980381D01*
X122529121Y-82982979D01*
X122531931Y-82983486D01*
X122600355Y-83009574D01*
X122653599Y-83053678D01*
X122688244Y-83112725D01*
X122693320Y-83128445D01*
X122695922Y-83148186D01*
X122698241Y-83187994D01*
X122700281Y-83248427D01*
X122702050Y-83330040D01*
X122703552Y-83433391D01*
X122704795Y-83559036D01*
X122705783Y-83707533D01*
X122706523Y-83879437D01*
X122707021Y-84075306D01*
X122707283Y-84295696D01*
X122707329Y-84434114D01*
X122707400Y-85689578D01*
X122412125Y-85684072D01*
X122308852Y-85681814D01*
X122227567Y-85678979D01*
X122164856Y-85675016D01*
X122117308Y-85669374D01*
X122081509Y-85661504D01*
X122054048Y-85650856D01*
X122031511Y-85636879D01*
X122010868Y-85619379D01*
X121997380Y-85607082D01*
X121985695Y-85595860D01*
X121975676Y-85583900D01*
X121967189Y-85569388D01*
X121960099Y-85550512D01*
X121954270Y-85525458D01*
X121949568Y-85492413D01*
X121945857Y-85449563D01*
X121943001Y-85395096D01*
X121940867Y-85327198D01*
X121939318Y-85244056D01*
X121938219Y-85143857D01*
X121937436Y-85024787D01*
X121936833Y-84885033D01*
X121936274Y-84722783D01*
X121935904Y-84613750D01*
X121935292Y-84464032D01*
X121934534Y-84321292D01*
X121933652Y-84187635D01*
X121932668Y-84065163D01*
X121931605Y-83955980D01*
X121930483Y-83862192D01*
X121929327Y-83785902D01*
X121928157Y-83729213D01*
X121926996Y-83694230D01*
X121926137Y-83683474D01*
X121913672Y-83661601D01*
X121885759Y-83654924D01*
X121883016Y-83654899D01*
X121852280Y-83661589D01*
X121838808Y-83674988D01*
X121837582Y-83690616D01*
X121836416Y-83729652D01*
X121835326Y-83790104D01*
X121834326Y-83869979D01*
X121833433Y-83967285D01*
X121832662Y-84080030D01*
X121832028Y-84206222D01*
X121831546Y-84343868D01*
X121831233Y-84490977D01*
X121831102Y-84645557D01*
X121831100Y-84671938D01*
X121831100Y-85648800D01*
X121056400Y-85648800D01*
X121056400Y-84667090D01*
X121056305Y-84475084D01*
X121056008Y-84307195D01*
X121055490Y-84162143D01*
X121054730Y-84038645D01*
X121053710Y-83935419D01*
X121052409Y-83851183D01*
X121050808Y-83784657D01*
X121048887Y-83734557D01*
X121046627Y-83699603D01*
X121044008Y-83678512D01*
X121041160Y-83670140D01*
X121012567Y-83656209D01*
X120980313Y-83659113D01*
X120956342Y-83677557D01*
X120955246Y-83679465D01*
X120952314Y-83697956D01*
X120949740Y-83741714D01*
X120947527Y-83810610D01*
X120945676Y-83904512D01*
X120944190Y-84023292D01*
X120943071Y-84166818D01*
X120942320Y-84334960D01*
X120941939Y-84527589D01*
X120941891Y-84609740D01*
X120941682Y-85515450D01*
X120913316Y-85565055D01*
X120891217Y-85598993D01*
X120865942Y-85626093D01*
X120834513Y-85647099D01*
X120793954Y-85662751D01*
X120741288Y-85673792D01*
X120673538Y-85680963D01*
X120587728Y-85685006D01*
X120480881Y-85686662D01*
X120424575Y-85686826D01*
X120180100Y-85686900D01*
X120180100Y-84416394D01*
X120180111Y-84208647D01*
X120180164Y-84024777D01*
X120180288Y-83863259D01*
X120180511Y-83722571D01*
X120180863Y-83601188D01*
X120181372Y-83497587D01*
X120182068Y-83410245D01*
X120182979Y-83337637D01*
X120184135Y-83278240D01*
X120185563Y-83230530D01*
X120187294Y-83192985D01*
X120189355Y-83164079D01*
X120191777Y-83142290D01*
X120194587Y-83126095D01*
X120197815Y-83113968D01*
X120201489Y-83104387D01*
X120205145Y-83096794D01*
X120243370Y-83041221D01*
X120294061Y-83004281D01*
X120359040Y-82982741D01*
X120384222Y-82980113D01*
X120432404Y-82977755D01*
X120501190Y-82975664D01*
X120588182Y-82973841D01*
X120690981Y-82972285D01*
X120807190Y-82970994D01*
X120934412Y-82969969D01*
X121070249Y-82969208D01*
X121212302Y-82968711D01*
X121358175Y-82968476D01*
X121505470Y-82968502D01*
G37*
X121505470Y-82968502D02*
X121651789Y-82968789D01*
X121794734Y-82969336D01*
X121931908Y-82970142D01*
X122060912Y-82971207D01*
X122179350Y-82972530D01*
X122284824Y-82974110D01*
X122374936Y-82975945D01*
X122447287Y-82978036D01*
X122499482Y-82980381D01*
X122529121Y-82982979D01*
X122531931Y-82983486D01*
X122600355Y-83009574D01*
X122653599Y-83053678D01*
X122688244Y-83112725D01*
X122693320Y-83128445D01*
X122695922Y-83148186D01*
X122698241Y-83187994D01*
X122700281Y-83248427D01*
X122702050Y-83330040D01*
X122703552Y-83433391D01*
X122704795Y-83559036D01*
X122705783Y-83707533D01*
X122706523Y-83879437D01*
X122707021Y-84075306D01*
X122707283Y-84295696D01*
X122707329Y-84434114D01*
X122707400Y-85689578D01*
X122412125Y-85684072D01*
X122308852Y-85681814D01*
X122227567Y-85678979D01*
X122164856Y-85675016D01*
X122117308Y-85669374D01*
X122081509Y-85661504D01*
X122054048Y-85650856D01*
X122031511Y-85636879D01*
X122010868Y-85619379D01*
X121997380Y-85607082D01*
X121985695Y-85595860D01*
X121975676Y-85583900D01*
X121967189Y-85569388D01*
X121960099Y-85550512D01*
X121954270Y-85525458D01*
X121949568Y-85492413D01*
X121945857Y-85449563D01*
X121943001Y-85395096D01*
X121940867Y-85327198D01*
X121939318Y-85244056D01*
X121938219Y-85143857D01*
X121937436Y-85024787D01*
X121936833Y-84885033D01*
X121936274Y-84722783D01*
X121935904Y-84613750D01*
X121935292Y-84464032D01*
X121934534Y-84321292D01*
X121933652Y-84187635D01*
X121932668Y-84065163D01*
X121931605Y-83955980D01*
X121930483Y-83862192D01*
X121929327Y-83785902D01*
X121928157Y-83729213D01*
X121926996Y-83694230D01*
X121926137Y-83683474D01*
X121913672Y-83661601D01*
X121885759Y-83654924D01*
X121883016Y-83654899D01*
X121852280Y-83661589D01*
X121838808Y-83674988D01*
X121837582Y-83690616D01*
X121836416Y-83729652D01*
X121835326Y-83790104D01*
X121834326Y-83869979D01*
X121833433Y-83967285D01*
X121832662Y-84080030D01*
X121832028Y-84206222D01*
X121831546Y-84343868D01*
X121831233Y-84490977D01*
X121831102Y-84645557D01*
X121831100Y-84671938D01*
X121831100Y-85648800D01*
X121056400Y-85648800D01*
X121056400Y-84667090D01*
X121056305Y-84475084D01*
X121056008Y-84307195D01*
X121055490Y-84162143D01*
X121054730Y-84038645D01*
X121053710Y-83935419D01*
X121052409Y-83851183D01*
X121050808Y-83784657D01*
X121048887Y-83734557D01*
X121046627Y-83699603D01*
X121044008Y-83678512D01*
X121041160Y-83670140D01*
X121012567Y-83656209D01*
X120980313Y-83659113D01*
X120956342Y-83677557D01*
X120955246Y-83679465D01*
X120952314Y-83697956D01*
X120949740Y-83741714D01*
X120947527Y-83810610D01*
X120945676Y-83904512D01*
X120944190Y-84023292D01*
X120943071Y-84166818D01*
X120942320Y-84334960D01*
X120941939Y-84527589D01*
X120941891Y-84609740D01*
X120941682Y-85515450D01*
X120913316Y-85565055D01*
X120891217Y-85598993D01*
X120865942Y-85626093D01*
X120834513Y-85647099D01*
X120793954Y-85662751D01*
X120741288Y-85673792D01*
X120673538Y-85680963D01*
X120587728Y-85685006D01*
X120480881Y-85686662D01*
X120424575Y-85686826D01*
X120180100Y-85686900D01*
X120180100Y-84416394D01*
X120180111Y-84208647D01*
X120180164Y-84024777D01*
X120180288Y-83863259D01*
X120180511Y-83722571D01*
X120180863Y-83601188D01*
X120181372Y-83497587D01*
X120182068Y-83410245D01*
X120182979Y-83337637D01*
X120184135Y-83278240D01*
X120185563Y-83230530D01*
X120187294Y-83192985D01*
X120189355Y-83164079D01*
X120191777Y-83142290D01*
X120194587Y-83126095D01*
X120197815Y-83113968D01*
X120201489Y-83104387D01*
X120205145Y-83096794D01*
X120243370Y-83041221D01*
X120294061Y-83004281D01*
X120359040Y-82982741D01*
X120384222Y-82980113D01*
X120432404Y-82977755D01*
X120501190Y-82975664D01*
X120588182Y-82973841D01*
X120690981Y-82972285D01*
X120807190Y-82970994D01*
X120934412Y-82969969D01*
X121070249Y-82969208D01*
X121212302Y-82968711D01*
X121358175Y-82968476D01*
X121505470Y-82968502D01*
D11*
%TO.C,RJS1*%
X148755000Y-74780000D02*
X148755000Y-75780000D01*
X131755000Y-74780000D02*
X131755000Y-75780000D01*
X148755000Y-81280000D02*
X148755000Y-77780000D01*
X146255000Y-83780000D02*
X148755000Y-81280000D01*
X139755000Y-83780000D02*
X146255000Y-83780000D01*
X134255000Y-83780000D02*
X137755000Y-83780000D01*
X131755000Y-81280000D02*
X134255000Y-83780000D01*
X131755000Y-77780000D02*
X131755000Y-81280000D01*
X148755000Y-69280000D02*
X148755000Y-72780000D01*
X146255000Y-66780000D02*
X148755000Y-69280000D01*
X142755000Y-66780000D02*
X146255000Y-66780000D01*
X134255000Y-66780000D02*
X137755000Y-66780000D01*
X131755000Y-69280000D02*
X134255000Y-66780000D01*
X131755000Y-72780000D02*
X131755000Y-69280000D01*
D12*
%TO.C,R12*%
X125776000Y-69596000D02*
X125176000Y-69596000D01*
%TO.C,R13*%
X128224000Y-80264000D02*
X128824000Y-80264000D01*
%TO.C,R14*%
X128824000Y-69596000D02*
X128224000Y-69596000D01*
%TO.C,R11*%
X125176000Y-80264000D02*
X125776000Y-80264000D01*
%TO.C,R10*%
X157688000Y-67056000D02*
X158288000Y-67056000D01*
%TO.C,R9*%
X158288000Y-83312000D02*
X157688000Y-83312000D01*
%TO.C,R8*%
X156164000Y-71628000D02*
X156764000Y-71628000D01*
%TO.C,R7*%
X156764000Y-77724000D02*
X156164000Y-77724000D01*
%TO.C,R6*%
X153116000Y-71628000D02*
X153716000Y-71628000D01*
%TO.C,R5*%
X153716000Y-77724000D02*
X153116000Y-77724000D01*
%TO.C,R4*%
X154640000Y-67056000D02*
X155240000Y-67056000D01*
%TO.C,R3*%
X155240000Y-83312000D02*
X154640000Y-83312000D01*
%TO.C,R2*%
X151592000Y-67056000D02*
X152192000Y-67056000D01*
%TO.C,R1*%
X152192000Y-83312000D02*
X151592000Y-83312000D01*
%TO.C,J2*%
X123125000Y-82550000D02*
X123125000Y-68580000D01*
X120715000Y-82550000D02*
X123125000Y-82550000D01*
X120715000Y-67310000D02*
X120715000Y-82550000D01*
X121920000Y-67310000D02*
X120715000Y-67310000D01*
%TO.C,J1*%
X161355000Y-67310000D02*
X161355000Y-81280000D01*
X163765000Y-67310000D02*
X161355000Y-67310000D01*
X163765000Y-82550000D02*
X163765000Y-67310000D01*
X162560000Y-82550000D02*
X163765000Y-82550000D01*
%TO.C,RJS1*%
D13*
X138979428Y-65566857D02*
X138579428Y-64995428D01*
X138293714Y-65566857D02*
X138293714Y-64366857D01*
X138750857Y-64366857D01*
X138865142Y-64424000D01*
X138922285Y-64481142D01*
X138979428Y-64595428D01*
X138979428Y-64766857D01*
X138922285Y-64881142D01*
X138865142Y-64938285D01*
X138750857Y-64995428D01*
X138293714Y-64995428D01*
X139836571Y-64366857D02*
X139836571Y-65224000D01*
X139779428Y-65395428D01*
X139665142Y-65509714D01*
X139493714Y-65566857D01*
X139379428Y-65566857D01*
X140350857Y-65509714D02*
X140522285Y-65566857D01*
X140808000Y-65566857D01*
X140922285Y-65509714D01*
X140979428Y-65452571D01*
X141036571Y-65338285D01*
X141036571Y-65224000D01*
X140979428Y-65109714D01*
X140922285Y-65052571D01*
X140808000Y-64995428D01*
X140579428Y-64938285D01*
X140465142Y-64881142D01*
X140408000Y-64824000D01*
X140350857Y-64709714D01*
X140350857Y-64595428D01*
X140408000Y-64481142D01*
X140465142Y-64424000D01*
X140579428Y-64366857D01*
X140865142Y-64366857D01*
X141036571Y-64424000D01*
X142179428Y-65566857D02*
X141493714Y-65566857D01*
X141836571Y-65566857D02*
X141836571Y-64366857D01*
X141722285Y-64538285D01*
X141608000Y-64652571D01*
X141493714Y-64709714D01*
%TO.C,R12*%
D11*
X124961714Y-67925904D02*
X124695047Y-67544952D01*
X124504571Y-67925904D02*
X124504571Y-67125904D01*
X124809333Y-67125904D01*
X124885523Y-67164000D01*
X124923619Y-67202095D01*
X124961714Y-67278285D01*
X124961714Y-67392571D01*
X124923619Y-67468761D01*
X124885523Y-67506857D01*
X124809333Y-67544952D01*
X124504571Y-67544952D01*
X125723619Y-67925904D02*
X125266476Y-67925904D01*
X125495047Y-67925904D02*
X125495047Y-67125904D01*
X125418857Y-67240190D01*
X125342666Y-67316380D01*
X125266476Y-67354476D01*
X126028380Y-67202095D02*
X126066476Y-67164000D01*
X126142666Y-67125904D01*
X126333142Y-67125904D01*
X126409333Y-67164000D01*
X126447428Y-67202095D01*
X126485523Y-67278285D01*
X126485523Y-67354476D01*
X126447428Y-67468761D01*
X125990285Y-67925904D01*
X126485523Y-67925904D01*
%TO.C,R13*%
X128009714Y-78593904D02*
X127743047Y-78212952D01*
X127552571Y-78593904D02*
X127552571Y-77793904D01*
X127857333Y-77793904D01*
X127933523Y-77832000D01*
X127971619Y-77870095D01*
X128009714Y-77946285D01*
X128009714Y-78060571D01*
X127971619Y-78136761D01*
X127933523Y-78174857D01*
X127857333Y-78212952D01*
X127552571Y-78212952D01*
X128771619Y-78593904D02*
X128314476Y-78593904D01*
X128543047Y-78593904D02*
X128543047Y-77793904D01*
X128466857Y-77908190D01*
X128390666Y-77984380D01*
X128314476Y-78022476D01*
X129038285Y-77793904D02*
X129533523Y-77793904D01*
X129266857Y-78098666D01*
X129381142Y-78098666D01*
X129457333Y-78136761D01*
X129495428Y-78174857D01*
X129533523Y-78251047D01*
X129533523Y-78441523D01*
X129495428Y-78517714D01*
X129457333Y-78555809D01*
X129381142Y-78593904D01*
X129152571Y-78593904D01*
X129076380Y-78555809D01*
X129038285Y-78517714D01*
%TO.C,R14*%
X128009714Y-67925904D02*
X127743047Y-67544952D01*
X127552571Y-67925904D02*
X127552571Y-67125904D01*
X127857333Y-67125904D01*
X127933523Y-67164000D01*
X127971619Y-67202095D01*
X128009714Y-67278285D01*
X128009714Y-67392571D01*
X127971619Y-67468761D01*
X127933523Y-67506857D01*
X127857333Y-67544952D01*
X127552571Y-67544952D01*
X128771619Y-67925904D02*
X128314476Y-67925904D01*
X128543047Y-67925904D02*
X128543047Y-67125904D01*
X128466857Y-67240190D01*
X128390666Y-67316380D01*
X128314476Y-67354476D01*
X129457333Y-67392571D02*
X129457333Y-67925904D01*
X129266857Y-67087809D02*
X129076380Y-67659238D01*
X129571619Y-67659238D01*
%TO.C,R11*%
X124961714Y-78593904D02*
X124695047Y-78212952D01*
X124504571Y-78593904D02*
X124504571Y-77793904D01*
X124809333Y-77793904D01*
X124885523Y-77832000D01*
X124923619Y-77870095D01*
X124961714Y-77946285D01*
X124961714Y-78060571D01*
X124923619Y-78136761D01*
X124885523Y-78174857D01*
X124809333Y-78212952D01*
X124504571Y-78212952D01*
X125723619Y-78593904D02*
X125266476Y-78593904D01*
X125495047Y-78593904D02*
X125495047Y-77793904D01*
X125418857Y-77908190D01*
X125342666Y-77984380D01*
X125266476Y-78022476D01*
X126485523Y-78593904D02*
X126028380Y-78593904D01*
X126256952Y-78593904D02*
X126256952Y-77793904D01*
X126180761Y-77908190D01*
X126104571Y-77984380D01*
X126028380Y-78022476D01*
%TO.C,R10*%
X157473714Y-65385904D02*
X157207047Y-65004952D01*
X157016571Y-65385904D02*
X157016571Y-64585904D01*
X157321333Y-64585904D01*
X157397523Y-64624000D01*
X157435619Y-64662095D01*
X157473714Y-64738285D01*
X157473714Y-64852571D01*
X157435619Y-64928761D01*
X157397523Y-64966857D01*
X157321333Y-65004952D01*
X157016571Y-65004952D01*
X158235619Y-65385904D02*
X157778476Y-65385904D01*
X158007047Y-65385904D02*
X158007047Y-64585904D01*
X157930857Y-64700190D01*
X157854666Y-64776380D01*
X157778476Y-64814476D01*
X158730857Y-64585904D02*
X158807047Y-64585904D01*
X158883238Y-64624000D01*
X158921333Y-64662095D01*
X158959428Y-64738285D01*
X158997523Y-64890666D01*
X158997523Y-65081142D01*
X158959428Y-65233523D01*
X158921333Y-65309714D01*
X158883238Y-65347809D01*
X158807047Y-65385904D01*
X158730857Y-65385904D01*
X158654666Y-65347809D01*
X158616571Y-65309714D01*
X158578476Y-65233523D01*
X158540380Y-65081142D01*
X158540380Y-64890666D01*
X158578476Y-64738285D01*
X158616571Y-64662095D01*
X158654666Y-64624000D01*
X158730857Y-64585904D01*
%TO.C,R9*%
X157854666Y-81387904D02*
X157588000Y-81006952D01*
X157397523Y-81387904D02*
X157397523Y-80587904D01*
X157702285Y-80587904D01*
X157778476Y-80626000D01*
X157816571Y-80664095D01*
X157854666Y-80740285D01*
X157854666Y-80854571D01*
X157816571Y-80930761D01*
X157778476Y-80968857D01*
X157702285Y-81006952D01*
X157397523Y-81006952D01*
X158235619Y-81387904D02*
X158388000Y-81387904D01*
X158464190Y-81349809D01*
X158502285Y-81311714D01*
X158578476Y-81197428D01*
X158616571Y-81045047D01*
X158616571Y-80740285D01*
X158578476Y-80664095D01*
X158540380Y-80626000D01*
X158464190Y-80587904D01*
X158311809Y-80587904D01*
X158235619Y-80626000D01*
X158197523Y-80664095D01*
X158159428Y-80740285D01*
X158159428Y-80930761D01*
X158197523Y-81006952D01*
X158235619Y-81045047D01*
X158311809Y-81083142D01*
X158464190Y-81083142D01*
X158540380Y-81045047D01*
X158578476Y-81006952D01*
X158616571Y-80930761D01*
%TO.C,R8*%
X156330666Y-69957904D02*
X156064000Y-69576952D01*
X155873523Y-69957904D02*
X155873523Y-69157904D01*
X156178285Y-69157904D01*
X156254476Y-69196000D01*
X156292571Y-69234095D01*
X156330666Y-69310285D01*
X156330666Y-69424571D01*
X156292571Y-69500761D01*
X156254476Y-69538857D01*
X156178285Y-69576952D01*
X155873523Y-69576952D01*
X156787809Y-69500761D02*
X156711619Y-69462666D01*
X156673523Y-69424571D01*
X156635428Y-69348380D01*
X156635428Y-69310285D01*
X156673523Y-69234095D01*
X156711619Y-69196000D01*
X156787809Y-69157904D01*
X156940190Y-69157904D01*
X157016380Y-69196000D01*
X157054476Y-69234095D01*
X157092571Y-69310285D01*
X157092571Y-69348380D01*
X157054476Y-69424571D01*
X157016380Y-69462666D01*
X156940190Y-69500761D01*
X156787809Y-69500761D01*
X156711619Y-69538857D01*
X156673523Y-69576952D01*
X156635428Y-69653142D01*
X156635428Y-69805523D01*
X156673523Y-69881714D01*
X156711619Y-69919809D01*
X156787809Y-69957904D01*
X156940190Y-69957904D01*
X157016380Y-69919809D01*
X157054476Y-69881714D01*
X157092571Y-69805523D01*
X157092571Y-69653142D01*
X157054476Y-69576952D01*
X157016380Y-69538857D01*
X156940190Y-69500761D01*
%TO.C,R7*%
X156330666Y-75799904D02*
X156064000Y-75418952D01*
X155873523Y-75799904D02*
X155873523Y-74999904D01*
X156178285Y-74999904D01*
X156254476Y-75038000D01*
X156292571Y-75076095D01*
X156330666Y-75152285D01*
X156330666Y-75266571D01*
X156292571Y-75342761D01*
X156254476Y-75380857D01*
X156178285Y-75418952D01*
X155873523Y-75418952D01*
X156597333Y-74999904D02*
X157130666Y-74999904D01*
X156787809Y-75799904D01*
%TO.C,R6*%
X153282666Y-69957904D02*
X153016000Y-69576952D01*
X152825523Y-69957904D02*
X152825523Y-69157904D01*
X153130285Y-69157904D01*
X153206476Y-69196000D01*
X153244571Y-69234095D01*
X153282666Y-69310285D01*
X153282666Y-69424571D01*
X153244571Y-69500761D01*
X153206476Y-69538857D01*
X153130285Y-69576952D01*
X152825523Y-69576952D01*
X153968380Y-69157904D02*
X153816000Y-69157904D01*
X153739809Y-69196000D01*
X153701714Y-69234095D01*
X153625523Y-69348380D01*
X153587428Y-69500761D01*
X153587428Y-69805523D01*
X153625523Y-69881714D01*
X153663619Y-69919809D01*
X153739809Y-69957904D01*
X153892190Y-69957904D01*
X153968380Y-69919809D01*
X154006476Y-69881714D01*
X154044571Y-69805523D01*
X154044571Y-69615047D01*
X154006476Y-69538857D01*
X153968380Y-69500761D01*
X153892190Y-69462666D01*
X153739809Y-69462666D01*
X153663619Y-69500761D01*
X153625523Y-69538857D01*
X153587428Y-69615047D01*
%TO.C,R5*%
X153282666Y-75799904D02*
X153016000Y-75418952D01*
X152825523Y-75799904D02*
X152825523Y-74999904D01*
X153130285Y-74999904D01*
X153206476Y-75038000D01*
X153244571Y-75076095D01*
X153282666Y-75152285D01*
X153282666Y-75266571D01*
X153244571Y-75342761D01*
X153206476Y-75380857D01*
X153130285Y-75418952D01*
X152825523Y-75418952D01*
X154006476Y-74999904D02*
X153625523Y-74999904D01*
X153587428Y-75380857D01*
X153625523Y-75342761D01*
X153701714Y-75304666D01*
X153892190Y-75304666D01*
X153968380Y-75342761D01*
X154006476Y-75380857D01*
X154044571Y-75457047D01*
X154044571Y-75647523D01*
X154006476Y-75723714D01*
X153968380Y-75761809D01*
X153892190Y-75799904D01*
X153701714Y-75799904D01*
X153625523Y-75761809D01*
X153587428Y-75723714D01*
%TO.C,R4*%
X154806666Y-65385904D02*
X154540000Y-65004952D01*
X154349523Y-65385904D02*
X154349523Y-64585904D01*
X154654285Y-64585904D01*
X154730476Y-64624000D01*
X154768571Y-64662095D01*
X154806666Y-64738285D01*
X154806666Y-64852571D01*
X154768571Y-64928761D01*
X154730476Y-64966857D01*
X154654285Y-65004952D01*
X154349523Y-65004952D01*
X155492380Y-64852571D02*
X155492380Y-65385904D01*
X155301904Y-64547809D02*
X155111428Y-65119238D01*
X155606666Y-65119238D01*
%TO.C,R3*%
X154806666Y-81387904D02*
X154540000Y-81006952D01*
X154349523Y-81387904D02*
X154349523Y-80587904D01*
X154654285Y-80587904D01*
X154730476Y-80626000D01*
X154768571Y-80664095D01*
X154806666Y-80740285D01*
X154806666Y-80854571D01*
X154768571Y-80930761D01*
X154730476Y-80968857D01*
X154654285Y-81006952D01*
X154349523Y-81006952D01*
X155073333Y-80587904D02*
X155568571Y-80587904D01*
X155301904Y-80892666D01*
X155416190Y-80892666D01*
X155492380Y-80930761D01*
X155530476Y-80968857D01*
X155568571Y-81045047D01*
X155568571Y-81235523D01*
X155530476Y-81311714D01*
X155492380Y-81349809D01*
X155416190Y-81387904D01*
X155187619Y-81387904D01*
X155111428Y-81349809D01*
X155073333Y-81311714D01*
%TO.C,R2*%
X151758666Y-65385904D02*
X151492000Y-65004952D01*
X151301523Y-65385904D02*
X151301523Y-64585904D01*
X151606285Y-64585904D01*
X151682476Y-64624000D01*
X151720571Y-64662095D01*
X151758666Y-64738285D01*
X151758666Y-64852571D01*
X151720571Y-64928761D01*
X151682476Y-64966857D01*
X151606285Y-65004952D01*
X151301523Y-65004952D01*
X152063428Y-64662095D02*
X152101523Y-64624000D01*
X152177714Y-64585904D01*
X152368190Y-64585904D01*
X152444380Y-64624000D01*
X152482476Y-64662095D01*
X152520571Y-64738285D01*
X152520571Y-64814476D01*
X152482476Y-64928761D01*
X152025333Y-65385904D01*
X152520571Y-65385904D01*
%TO.C,R1*%
X151758666Y-81387904D02*
X151492000Y-81006952D01*
X151301523Y-81387904D02*
X151301523Y-80587904D01*
X151606285Y-80587904D01*
X151682476Y-80626000D01*
X151720571Y-80664095D01*
X151758666Y-80740285D01*
X151758666Y-80854571D01*
X151720571Y-80930761D01*
X151682476Y-80968857D01*
X151606285Y-81006952D01*
X151301523Y-81006952D01*
X152520571Y-81387904D02*
X152063428Y-81387904D01*
X152292000Y-81387904D02*
X152292000Y-80587904D01*
X152215809Y-80702190D01*
X152139619Y-80778380D01*
X152063428Y-80816476D01*
%TO.C,J2*%
D13*
X121520000Y-65382857D02*
X121520000Y-66240000D01*
X121462857Y-66411428D01*
X121348571Y-66525714D01*
X121177142Y-66582857D01*
X121062857Y-66582857D01*
X122034285Y-65497142D02*
X122091428Y-65440000D01*
X122205714Y-65382857D01*
X122491428Y-65382857D01*
X122605714Y-65440000D01*
X122662857Y-65497142D01*
X122720000Y-65611428D01*
X122720000Y-65725714D01*
X122662857Y-65897142D01*
X121977142Y-66582857D01*
X122720000Y-66582857D01*
%TO.C,J1*%
X162160000Y-83162857D02*
X162160000Y-84020000D01*
X162102857Y-84191428D01*
X161988571Y-84305714D01*
X161817142Y-84362857D01*
X161702857Y-84362857D01*
X163360000Y-84362857D02*
X162674285Y-84362857D01*
X163017142Y-84362857D02*
X163017142Y-83162857D01*
X162902857Y-83334285D01*
X162788571Y-83448571D01*
X162674285Y-83505714D01*
%TD*%
M02*
