%TF.GenerationSoftware,KiCad,Pcbnew,(5.1.9)-1*%
%TF.CreationDate,2021-03-10T13:48:37-05:00*%
%TF.ProjectId,RKJXT1F42001_Breakout,524b4a58-5431-4463-9432-3030315f4272,rev?*%
%TF.SameCoordinates,Original*%
%TF.FileFunction,Copper,L2,Bot*%
%TF.FilePolarity,Positive*%
%FSLAX46Y46*%
G04 Gerber Fmt 4.6, Leading zero omitted, Abs format (unit mm)*
G04 Created by KiCad (PCBNEW (5.1.9)-1) date 2021-03-10 13:48:37*
%MOMM*%
%LPD*%
G01*
G04 APERTURE LIST*
%TA.AperFunction,ComponentPad*%
%ADD10C,1.500000*%
%TD*%
%TA.AperFunction,ComponentPad*%
%ADD11R,1.725000X1.725000*%
%TD*%
%TA.AperFunction,ComponentPad*%
%ADD12C,1.725000*%
%TD*%
%TA.AperFunction,Conductor*%
%ADD13C,0.250000*%
%TD*%
%TA.AperFunction,Conductor*%
%ADD14C,0.100000*%
%TD*%
G04 APERTURE END LIST*
D10*
%TO.P,RJS1,1*%
%TO.N,Net-(J1-Pad1)*%
X138755000Y-83080000D03*
%TO.P,RJS1,2*%
%TO.N,Net-(J1-Pad2)*%
X141255000Y-82260000D03*
%TO.P,RJS1,3*%
%TO.N,Net-(J1-Pad3)*%
X147115000Y-79030000D03*
%TO.P,RJS1,4*%
%TO.N,Net-(J1-Pad4)*%
X148055000Y-76780000D03*
%TO.P,RJS1,5*%
%TO.N,Net-(J1-Pad5)*%
X148055000Y-73780000D03*
%TO.P,RJS1,6*%
%TO.N,Net-(J1-Pad6)*%
X141755000Y-67480000D03*
%TO.P,RJS1,7*%
%TO.N,Net-(J2-Pad2)*%
X139255000Y-69500000D03*
%TO.P,RJS1,8*%
%TO.N,Net-(J2-Pad1)*%
X138755000Y-67480000D03*
%TO.P,RJS1,9*%
%TO.N,Net-(J2-Pad3)*%
X132455000Y-73780000D03*
%TO.P,RJS1,10*%
%TO.N,Net-(J2-Pad4)*%
X132455000Y-76780000D03*
%TO.P,RJS1,11*%
%TO.N,Net-(RJS1-Pad11)*%
X136455000Y-76780000D03*
%TD*%
D11*
%TO.P,J2,1*%
%TO.N,Net-(J2-Pad1)*%
X121920000Y-68580000D03*
D12*
%TO.P,J2,2*%
%TO.N,Net-(J2-Pad2)*%
X121920000Y-71120000D03*
%TO.P,J2,3*%
%TO.N,Net-(J2-Pad3)*%
X121920000Y-73660000D03*
%TO.P,J2,4*%
%TO.N,Net-(J2-Pad4)*%
X121920000Y-76200000D03*
%TO.P,J2,5*%
%TO.N,Net-(J2-Pad5)*%
X121920000Y-78740000D03*
%TO.P,J2,6*%
%TO.N,Net-(J2-Pad6)*%
X121920000Y-81280000D03*
%TD*%
D11*
%TO.P,J1,1*%
%TO.N,Net-(J1-Pad1)*%
X162560000Y-81280000D03*
D12*
%TO.P,J1,2*%
%TO.N,Net-(J1-Pad2)*%
X162560000Y-78740000D03*
%TO.P,J1,3*%
%TO.N,Net-(J1-Pad3)*%
X162560000Y-76200000D03*
%TO.P,J1,4*%
%TO.N,Net-(J1-Pad4)*%
X162560000Y-73660000D03*
%TO.P,J1,5*%
%TO.N,Net-(J1-Pad5)*%
X162560000Y-71120000D03*
%TO.P,J1,6*%
%TO.N,Net-(J1-Pad6)*%
X162560000Y-68580000D03*
%TD*%
D13*
%TO.N,Net-(J1-Pad1)*%
X162560000Y-81280000D02*
X161372200Y-81280000D01*
X161372200Y-81280000D02*
X159234500Y-83417700D01*
X159234500Y-83417700D02*
X139092700Y-83417700D01*
X139092700Y-83417700D02*
X138755000Y-83080000D01*
%TO.N,Net-(J1-Pad2)*%
X162560000Y-78740000D02*
X159040000Y-82260000D01*
X159040000Y-82260000D02*
X141255000Y-82260000D01*
%TO.N,Net-(J1-Pad3)*%
X162560000Y-76200000D02*
X159730000Y-79030000D01*
X159730000Y-79030000D02*
X147115000Y-79030000D01*
%TO.N,Net-(J1-Pad5)*%
X162560000Y-71120000D02*
X150715000Y-71120000D01*
X150715000Y-71120000D02*
X148055000Y-73780000D01*
%TO.N,Net-(J1-Pad6)*%
X162560000Y-68580000D02*
X142855000Y-68580000D01*
X142855000Y-68580000D02*
X141755000Y-67480000D01*
%TO.N,Net-(J2-Pad1)*%
X121920000Y-68580000D02*
X123107800Y-68580000D01*
X138755000Y-67480000D02*
X124207800Y-67480000D01*
X124207800Y-67480000D02*
X123107800Y-68580000D01*
%TO.N,Net-(J2-Pad2)*%
X121920000Y-71120000D02*
X137635000Y-71120000D01*
X137635000Y-71120000D02*
X139255000Y-69500000D01*
%TO.N,Net-(J2-Pad3)*%
X121920000Y-73660000D02*
X132335000Y-73660000D01*
X132335000Y-73660000D02*
X132455000Y-73780000D01*
%TO.N,Net-(J2-Pad4)*%
X121920000Y-76200000D02*
X131875000Y-76200000D01*
X131875000Y-76200000D02*
X132455000Y-76780000D01*
%TD*%
D14*
%TO.N,Net-(J1-Pad3)*%
X164517000Y-85777000D02*
X119963000Y-85777000D01*
X119963000Y-82951173D01*
X137447000Y-82951173D01*
X137447000Y-83208827D01*
X137497266Y-83461530D01*
X137595865Y-83699570D01*
X137739010Y-83913801D01*
X137921199Y-84095990D01*
X138135430Y-84239135D01*
X138373470Y-84337734D01*
X138626173Y-84388000D01*
X138883827Y-84388000D01*
X139136530Y-84337734D01*
X139374570Y-84239135D01*
X139581752Y-84100700D01*
X159200964Y-84100700D01*
X159234500Y-84104003D01*
X159268036Y-84100700D01*
X159268046Y-84100700D01*
X159368391Y-84090817D01*
X159497137Y-84051762D01*
X159615790Y-83988341D01*
X159719790Y-83902990D01*
X159741177Y-83876930D01*
X161207890Y-82410218D01*
X161231296Y-82454008D01*
X161301026Y-82538974D01*
X161385992Y-82608704D01*
X161482930Y-82660518D01*
X161588113Y-82692425D01*
X161697500Y-82703199D01*
X163422500Y-82703199D01*
X163531887Y-82692425D01*
X163637070Y-82660518D01*
X163734008Y-82608704D01*
X163818974Y-82538974D01*
X163888704Y-82454008D01*
X163940518Y-82357070D01*
X163972425Y-82251887D01*
X163983199Y-82142500D01*
X163983199Y-80417500D01*
X163972425Y-80308113D01*
X163940518Y-80202930D01*
X163888704Y-80105992D01*
X163818974Y-80021026D01*
X163734008Y-79951296D01*
X163637070Y-79899482D01*
X163531887Y-79867575D01*
X163442476Y-79858769D01*
X163465516Y-79843374D01*
X163663374Y-79645516D01*
X163818831Y-79412859D01*
X163925911Y-79154345D01*
X163980500Y-78879907D01*
X163980500Y-78600093D01*
X163925911Y-78325655D01*
X163818831Y-78067141D01*
X163663374Y-77834484D01*
X163465516Y-77636626D01*
X163232859Y-77481169D01*
X163206952Y-77470438D01*
X163225336Y-77462823D01*
X163314916Y-77243416D01*
X162560000Y-76488500D01*
X161805084Y-77243416D01*
X161894664Y-77462823D01*
X161913204Y-77470373D01*
X161887141Y-77481169D01*
X161654484Y-77636626D01*
X161456626Y-77834484D01*
X161301169Y-78067141D01*
X161194089Y-78325655D01*
X161139500Y-78600093D01*
X161139500Y-78879907D01*
X161191710Y-79142383D01*
X158757093Y-81577000D01*
X142371752Y-81577000D01*
X142270990Y-81426199D01*
X142088801Y-81244010D01*
X141874570Y-81100865D01*
X141636530Y-81002266D01*
X141383827Y-80952000D01*
X141126173Y-80952000D01*
X140873470Y-81002266D01*
X140635430Y-81100865D01*
X140421199Y-81244010D01*
X140239010Y-81426199D01*
X140095865Y-81640430D01*
X139997266Y-81878470D01*
X139947000Y-82131173D01*
X139947000Y-82388827D01*
X139997266Y-82641530D01*
X140035858Y-82734700D01*
X140019941Y-82734700D01*
X140012734Y-82698470D01*
X139914135Y-82460430D01*
X139770990Y-82246199D01*
X139588801Y-82064010D01*
X139374570Y-81920865D01*
X139136530Y-81822266D01*
X138883827Y-81772000D01*
X138626173Y-81772000D01*
X138373470Y-81822266D01*
X138135430Y-81920865D01*
X137921199Y-82064010D01*
X137739010Y-82246199D01*
X137595865Y-82460430D01*
X137497266Y-82698470D01*
X137447000Y-82951173D01*
X119963000Y-82951173D01*
X119963000Y-67717500D01*
X120496801Y-67717500D01*
X120496801Y-69442500D01*
X120507575Y-69551887D01*
X120539482Y-69657070D01*
X120591296Y-69754008D01*
X120661026Y-69838974D01*
X120745992Y-69908704D01*
X120842930Y-69960518D01*
X120948113Y-69992425D01*
X121037524Y-70001231D01*
X121014484Y-70016626D01*
X120816626Y-70214484D01*
X120661169Y-70447141D01*
X120554089Y-70705655D01*
X120499500Y-70980093D01*
X120499500Y-71259907D01*
X120554089Y-71534345D01*
X120661169Y-71792859D01*
X120816626Y-72025516D01*
X121014484Y-72223374D01*
X121247141Y-72378831D01*
X121274105Y-72390000D01*
X121247141Y-72401169D01*
X121014484Y-72556626D01*
X120816626Y-72754484D01*
X120661169Y-72987141D01*
X120554089Y-73245655D01*
X120499500Y-73520093D01*
X120499500Y-73799907D01*
X120554089Y-74074345D01*
X120661169Y-74332859D01*
X120816626Y-74565516D01*
X121014484Y-74763374D01*
X121247141Y-74918831D01*
X121274105Y-74930000D01*
X121247141Y-74941169D01*
X121014484Y-75096626D01*
X120816626Y-75294484D01*
X120661169Y-75527141D01*
X120554089Y-75785655D01*
X120499500Y-76060093D01*
X120499500Y-76339907D01*
X120554089Y-76614345D01*
X120661169Y-76872859D01*
X120816626Y-77105516D01*
X121014484Y-77303374D01*
X121247141Y-77458831D01*
X121274105Y-77470000D01*
X121247141Y-77481169D01*
X121014484Y-77636626D01*
X120816626Y-77834484D01*
X120661169Y-78067141D01*
X120554089Y-78325655D01*
X120499500Y-78600093D01*
X120499500Y-78879907D01*
X120554089Y-79154345D01*
X120661169Y-79412859D01*
X120816626Y-79645516D01*
X121014484Y-79843374D01*
X121247141Y-79998831D01*
X121274105Y-80010000D01*
X121247141Y-80021169D01*
X121014484Y-80176626D01*
X120816626Y-80374484D01*
X120661169Y-80607141D01*
X120554089Y-80865655D01*
X120499500Y-81140093D01*
X120499500Y-81419907D01*
X120554089Y-81694345D01*
X120661169Y-81952859D01*
X120816626Y-82185516D01*
X121014484Y-82383374D01*
X121247141Y-82538831D01*
X121505655Y-82645911D01*
X121780093Y-82700500D01*
X122059907Y-82700500D01*
X122334345Y-82645911D01*
X122592859Y-82538831D01*
X122825516Y-82383374D01*
X123023374Y-82185516D01*
X123178831Y-81952859D01*
X123285911Y-81694345D01*
X123340500Y-81419907D01*
X123340500Y-81140093D01*
X123285911Y-80865655D01*
X123178831Y-80607141D01*
X123023374Y-80374484D01*
X122825516Y-80176626D01*
X122592859Y-80021169D01*
X122565895Y-80010000D01*
X122592859Y-79998831D01*
X122602543Y-79992360D01*
X146441140Y-79992360D01*
X146516858Y-80200337D01*
X146756673Y-80294541D01*
X147010258Y-80340149D01*
X147267869Y-80335409D01*
X147519604Y-80280503D01*
X147713142Y-80200337D01*
X147788860Y-79992360D01*
X147115000Y-79318500D01*
X146441140Y-79992360D01*
X122602543Y-79992360D01*
X122825516Y-79843374D01*
X123023374Y-79645516D01*
X123178831Y-79412859D01*
X123285911Y-79154345D01*
X123331479Y-78925258D01*
X145804851Y-78925258D01*
X145809591Y-79182869D01*
X145864497Y-79434604D01*
X145944663Y-79628142D01*
X146152640Y-79703860D01*
X146826500Y-79030000D01*
X147403500Y-79030000D01*
X148077360Y-79703860D01*
X148285337Y-79628142D01*
X148379541Y-79388327D01*
X148425149Y-79134742D01*
X148420409Y-78877131D01*
X148365503Y-78625396D01*
X148285337Y-78431858D01*
X148077360Y-78356140D01*
X147403500Y-79030000D01*
X146826500Y-79030000D01*
X146152640Y-78356140D01*
X145944663Y-78431858D01*
X145850459Y-78671673D01*
X145804851Y-78925258D01*
X123331479Y-78925258D01*
X123340500Y-78879907D01*
X123340500Y-78600093D01*
X123285911Y-78325655D01*
X123178831Y-78067141D01*
X123023374Y-77834484D01*
X122825516Y-77636626D01*
X122592859Y-77481169D01*
X122565895Y-77470000D01*
X122592859Y-77458831D01*
X122825516Y-77303374D01*
X123023374Y-77105516D01*
X123172055Y-76883000D01*
X131147000Y-76883000D01*
X131147000Y-76908827D01*
X131197266Y-77161530D01*
X131295865Y-77399570D01*
X131439010Y-77613801D01*
X131621199Y-77795990D01*
X131835430Y-77939135D01*
X132073470Y-78037734D01*
X132326173Y-78088000D01*
X132583827Y-78088000D01*
X132836530Y-78037734D01*
X133074570Y-77939135D01*
X133288801Y-77795990D01*
X133470990Y-77613801D01*
X133614135Y-77399570D01*
X133712734Y-77161530D01*
X133763000Y-76908827D01*
X133763000Y-76651173D01*
X135147000Y-76651173D01*
X135147000Y-76908827D01*
X135197266Y-77161530D01*
X135295865Y-77399570D01*
X135439010Y-77613801D01*
X135621199Y-77795990D01*
X135835430Y-77939135D01*
X136073470Y-78037734D01*
X136326173Y-78088000D01*
X136583827Y-78088000D01*
X136686183Y-78067640D01*
X146441140Y-78067640D01*
X147115000Y-78741500D01*
X147788860Y-78067640D01*
X147786131Y-78060144D01*
X147926173Y-78088000D01*
X148183827Y-78088000D01*
X148436530Y-78037734D01*
X148674570Y-77939135D01*
X148888801Y-77795990D01*
X149070990Y-77613801D01*
X149214135Y-77399570D01*
X149312734Y-77161530D01*
X149363000Y-76908827D01*
X149363000Y-76651173D01*
X149312734Y-76398470D01*
X149214135Y-76160430D01*
X149152757Y-76068571D01*
X161138691Y-76068571D01*
X161140361Y-76348380D01*
X161196586Y-76622486D01*
X161297177Y-76865336D01*
X161516584Y-76954916D01*
X162271500Y-76200000D01*
X162848500Y-76200000D01*
X163603416Y-76954916D01*
X163822823Y-76865336D01*
X163928358Y-76606187D01*
X163981309Y-76331429D01*
X163979639Y-76051620D01*
X163923414Y-75777514D01*
X163822823Y-75534664D01*
X163603416Y-75445084D01*
X162848500Y-76200000D01*
X162271500Y-76200000D01*
X161516584Y-75445084D01*
X161297177Y-75534664D01*
X161191642Y-75793813D01*
X161138691Y-76068571D01*
X149152757Y-76068571D01*
X149070990Y-75946199D01*
X148888801Y-75764010D01*
X148674570Y-75620865D01*
X148436530Y-75522266D01*
X148183827Y-75472000D01*
X147926173Y-75472000D01*
X147673470Y-75522266D01*
X147435430Y-75620865D01*
X147221199Y-75764010D01*
X147039010Y-75946199D01*
X146895865Y-76160430D01*
X146797266Y-76398470D01*
X146747000Y-76651173D01*
X146747000Y-76908827D01*
X146797266Y-77161530D01*
X146895865Y-77399570D01*
X147039010Y-77613801D01*
X147146409Y-77721200D01*
X146962131Y-77724591D01*
X146710396Y-77779497D01*
X146516858Y-77859663D01*
X146441140Y-78067640D01*
X136686183Y-78067640D01*
X136836530Y-78037734D01*
X137074570Y-77939135D01*
X137288801Y-77795990D01*
X137470990Y-77613801D01*
X137614135Y-77399570D01*
X137712734Y-77161530D01*
X137763000Y-76908827D01*
X137763000Y-76651173D01*
X137712734Y-76398470D01*
X137614135Y-76160430D01*
X137470990Y-75946199D01*
X137288801Y-75764010D01*
X137074570Y-75620865D01*
X136836530Y-75522266D01*
X136583827Y-75472000D01*
X136326173Y-75472000D01*
X136073470Y-75522266D01*
X135835430Y-75620865D01*
X135621199Y-75764010D01*
X135439010Y-75946199D01*
X135295865Y-76160430D01*
X135197266Y-76398470D01*
X135147000Y-76651173D01*
X133763000Y-76651173D01*
X133712734Y-76398470D01*
X133614135Y-76160430D01*
X133470990Y-75946199D01*
X133288801Y-75764010D01*
X133074570Y-75620865D01*
X132836530Y-75522266D01*
X132583827Y-75472000D01*
X132326173Y-75472000D01*
X132073470Y-75522266D01*
X132039735Y-75536239D01*
X132008891Y-75526883D01*
X131908546Y-75517000D01*
X131908536Y-75517000D01*
X131875000Y-75513697D01*
X131841464Y-75517000D01*
X123172055Y-75517000D01*
X123023374Y-75294484D01*
X122825516Y-75096626D01*
X122592859Y-74941169D01*
X122565895Y-74930000D01*
X122592859Y-74918831D01*
X122825516Y-74763374D01*
X123023374Y-74565516D01*
X123172055Y-74343000D01*
X131272433Y-74343000D01*
X131295865Y-74399570D01*
X131439010Y-74613801D01*
X131621199Y-74795990D01*
X131835430Y-74939135D01*
X132073470Y-75037734D01*
X132326173Y-75088000D01*
X132583827Y-75088000D01*
X132836530Y-75037734D01*
X133074570Y-74939135D01*
X133288801Y-74795990D01*
X133470990Y-74613801D01*
X133614135Y-74399570D01*
X133712734Y-74161530D01*
X133763000Y-73908827D01*
X133763000Y-73651173D01*
X133712734Y-73398470D01*
X133614135Y-73160430D01*
X133470990Y-72946199D01*
X133288801Y-72764010D01*
X133074570Y-72620865D01*
X132836530Y-72522266D01*
X132583827Y-72472000D01*
X132326173Y-72472000D01*
X132073470Y-72522266D01*
X131835430Y-72620865D01*
X131621199Y-72764010D01*
X131439010Y-72946199D01*
X131418429Y-72977000D01*
X123172055Y-72977000D01*
X123023374Y-72754484D01*
X122825516Y-72556626D01*
X122592859Y-72401169D01*
X122565895Y-72390000D01*
X122592859Y-72378831D01*
X122825516Y-72223374D01*
X123023374Y-72025516D01*
X123172055Y-71803000D01*
X137601464Y-71803000D01*
X137635000Y-71806303D01*
X137668536Y-71803000D01*
X137668546Y-71803000D01*
X137768891Y-71793117D01*
X137897637Y-71754062D01*
X138016290Y-71690641D01*
X138120290Y-71605290D01*
X138141677Y-71579230D01*
X138948291Y-70772617D01*
X139126173Y-70808000D01*
X139383827Y-70808000D01*
X139636530Y-70757734D01*
X139874570Y-70659135D01*
X140088801Y-70515990D01*
X140270990Y-70333801D01*
X140414135Y-70119570D01*
X140512734Y-69881530D01*
X140563000Y-69628827D01*
X140563000Y-69371173D01*
X140512734Y-69118470D01*
X140414135Y-68880430D01*
X140270990Y-68666199D01*
X140088801Y-68484010D01*
X139874570Y-68340865D01*
X139779280Y-68301395D01*
X139914135Y-68099570D01*
X140012734Y-67861530D01*
X140063000Y-67608827D01*
X140063000Y-67351173D01*
X140447000Y-67351173D01*
X140447000Y-67608827D01*
X140497266Y-67861530D01*
X140595865Y-68099570D01*
X140739010Y-68313801D01*
X140921199Y-68495990D01*
X141135430Y-68639135D01*
X141373470Y-68737734D01*
X141626173Y-68788000D01*
X141883827Y-68788000D01*
X142061709Y-68752617D01*
X142348327Y-69039235D01*
X142369710Y-69065290D01*
X142473710Y-69150641D01*
X142528941Y-69180162D01*
X142592362Y-69214062D01*
X142631417Y-69225909D01*
X142721109Y-69253117D01*
X142821454Y-69263000D01*
X142821464Y-69263000D01*
X142855000Y-69266303D01*
X142888536Y-69263000D01*
X161307945Y-69263000D01*
X161456626Y-69485516D01*
X161654484Y-69683374D01*
X161887141Y-69838831D01*
X161914105Y-69850000D01*
X161887141Y-69861169D01*
X161654484Y-70016626D01*
X161456626Y-70214484D01*
X161307945Y-70437000D01*
X150748535Y-70437000D01*
X150714999Y-70433697D01*
X150681463Y-70437000D01*
X150681454Y-70437000D01*
X150581109Y-70446883D01*
X150452363Y-70485938D01*
X150333710Y-70549359D01*
X150229710Y-70634710D01*
X150208328Y-70660764D01*
X148361709Y-72507383D01*
X148183827Y-72472000D01*
X147926173Y-72472000D01*
X147673470Y-72522266D01*
X147435430Y-72620865D01*
X147221199Y-72764010D01*
X147039010Y-72946199D01*
X146895865Y-73160430D01*
X146797266Y-73398470D01*
X146747000Y-73651173D01*
X146747000Y-73908827D01*
X146797266Y-74161530D01*
X146895865Y-74399570D01*
X147039010Y-74613801D01*
X147221199Y-74795990D01*
X147435430Y-74939135D01*
X147673470Y-75037734D01*
X147926173Y-75088000D01*
X148183827Y-75088000D01*
X148436530Y-75037734D01*
X148674570Y-74939135D01*
X148888801Y-74795990D01*
X149070990Y-74613801D01*
X149214135Y-74399570D01*
X149312734Y-74161530D01*
X149363000Y-73908827D01*
X149363000Y-73651173D01*
X149327617Y-73473291D01*
X150997908Y-71803000D01*
X161307945Y-71803000D01*
X161456626Y-72025516D01*
X161654484Y-72223374D01*
X161887141Y-72378831D01*
X161914105Y-72390000D01*
X161887141Y-72401169D01*
X161654484Y-72556626D01*
X161456626Y-72754484D01*
X161301169Y-72987141D01*
X161194089Y-73245655D01*
X161139500Y-73520093D01*
X161139500Y-73799907D01*
X161194089Y-74074345D01*
X161301169Y-74332859D01*
X161456626Y-74565516D01*
X161654484Y-74763374D01*
X161887141Y-74918831D01*
X161913048Y-74929562D01*
X161894664Y-74937177D01*
X161805084Y-75156584D01*
X162560000Y-75911500D01*
X163314916Y-75156584D01*
X163225336Y-74937177D01*
X163206796Y-74929627D01*
X163232859Y-74918831D01*
X163465516Y-74763374D01*
X163663374Y-74565516D01*
X163818831Y-74332859D01*
X163925911Y-74074345D01*
X163980500Y-73799907D01*
X163980500Y-73520093D01*
X163925911Y-73245655D01*
X163818831Y-72987141D01*
X163663374Y-72754484D01*
X163465516Y-72556626D01*
X163232859Y-72401169D01*
X163205895Y-72390000D01*
X163232859Y-72378831D01*
X163465516Y-72223374D01*
X163663374Y-72025516D01*
X163818831Y-71792859D01*
X163925911Y-71534345D01*
X163980500Y-71259907D01*
X163980500Y-70980093D01*
X163925911Y-70705655D01*
X163818831Y-70447141D01*
X163663374Y-70214484D01*
X163465516Y-70016626D01*
X163232859Y-69861169D01*
X163205895Y-69850000D01*
X163232859Y-69838831D01*
X163465516Y-69683374D01*
X163663374Y-69485516D01*
X163818831Y-69252859D01*
X163925911Y-68994345D01*
X163980500Y-68719907D01*
X163980500Y-68440093D01*
X163925911Y-68165655D01*
X163818831Y-67907141D01*
X163663374Y-67674484D01*
X163465516Y-67476626D01*
X163232859Y-67321169D01*
X162974345Y-67214089D01*
X162699907Y-67159500D01*
X162420093Y-67159500D01*
X162145655Y-67214089D01*
X161887141Y-67321169D01*
X161654484Y-67476626D01*
X161456626Y-67674484D01*
X161307945Y-67897000D01*
X143137908Y-67897000D01*
X143027617Y-67786709D01*
X143063000Y-67608827D01*
X143063000Y-67351173D01*
X143012734Y-67098470D01*
X142914135Y-66860430D01*
X142770990Y-66646199D01*
X142588801Y-66464010D01*
X142374570Y-66320865D01*
X142136530Y-66222266D01*
X141883827Y-66172000D01*
X141626173Y-66172000D01*
X141373470Y-66222266D01*
X141135430Y-66320865D01*
X140921199Y-66464010D01*
X140739010Y-66646199D01*
X140595865Y-66860430D01*
X140497266Y-67098470D01*
X140447000Y-67351173D01*
X140063000Y-67351173D01*
X140012734Y-67098470D01*
X139914135Y-66860430D01*
X139770990Y-66646199D01*
X139588801Y-66464010D01*
X139374570Y-66320865D01*
X139136530Y-66222266D01*
X138883827Y-66172000D01*
X138626173Y-66172000D01*
X138373470Y-66222266D01*
X138135430Y-66320865D01*
X137921199Y-66464010D01*
X137739010Y-66646199D01*
X137638248Y-66797000D01*
X124241336Y-66797000D01*
X124207800Y-66793697D01*
X124174264Y-66797000D01*
X124174254Y-66797000D01*
X124073909Y-66806883D01*
X123984217Y-66834091D01*
X123945162Y-66845938D01*
X123918050Y-66860430D01*
X123826510Y-66909359D01*
X123722510Y-66994710D01*
X123701127Y-67020765D01*
X123272110Y-67449782D01*
X123248704Y-67405992D01*
X123178974Y-67321026D01*
X123094008Y-67251296D01*
X122997070Y-67199482D01*
X122891887Y-67167575D01*
X122782500Y-67156801D01*
X121057500Y-67156801D01*
X120948113Y-67167575D01*
X120842930Y-67199482D01*
X120745992Y-67251296D01*
X120661026Y-67321026D01*
X120591296Y-67405992D01*
X120539482Y-67502930D01*
X120507575Y-67608113D01*
X120496801Y-67717500D01*
X119963000Y-67717500D01*
X119963000Y-64083000D01*
X164517001Y-64083000D01*
X164517000Y-85777000D01*
%TA.AperFunction,Conductor*%
G36*
X164517000Y-85777000D02*
G01*
X119963000Y-85777000D01*
X119963000Y-82951173D01*
X137447000Y-82951173D01*
X137447000Y-83208827D01*
X137497266Y-83461530D01*
X137595865Y-83699570D01*
X137739010Y-83913801D01*
X137921199Y-84095990D01*
X138135430Y-84239135D01*
X138373470Y-84337734D01*
X138626173Y-84388000D01*
X138883827Y-84388000D01*
X139136530Y-84337734D01*
X139374570Y-84239135D01*
X139581752Y-84100700D01*
X159200964Y-84100700D01*
X159234500Y-84104003D01*
X159268036Y-84100700D01*
X159268046Y-84100700D01*
X159368391Y-84090817D01*
X159497137Y-84051762D01*
X159615790Y-83988341D01*
X159719790Y-83902990D01*
X159741177Y-83876930D01*
X161207890Y-82410218D01*
X161231296Y-82454008D01*
X161301026Y-82538974D01*
X161385992Y-82608704D01*
X161482930Y-82660518D01*
X161588113Y-82692425D01*
X161697500Y-82703199D01*
X163422500Y-82703199D01*
X163531887Y-82692425D01*
X163637070Y-82660518D01*
X163734008Y-82608704D01*
X163818974Y-82538974D01*
X163888704Y-82454008D01*
X163940518Y-82357070D01*
X163972425Y-82251887D01*
X163983199Y-82142500D01*
X163983199Y-80417500D01*
X163972425Y-80308113D01*
X163940518Y-80202930D01*
X163888704Y-80105992D01*
X163818974Y-80021026D01*
X163734008Y-79951296D01*
X163637070Y-79899482D01*
X163531887Y-79867575D01*
X163442476Y-79858769D01*
X163465516Y-79843374D01*
X163663374Y-79645516D01*
X163818831Y-79412859D01*
X163925911Y-79154345D01*
X163980500Y-78879907D01*
X163980500Y-78600093D01*
X163925911Y-78325655D01*
X163818831Y-78067141D01*
X163663374Y-77834484D01*
X163465516Y-77636626D01*
X163232859Y-77481169D01*
X163206952Y-77470438D01*
X163225336Y-77462823D01*
X163314916Y-77243416D01*
X162560000Y-76488500D01*
X161805084Y-77243416D01*
X161894664Y-77462823D01*
X161913204Y-77470373D01*
X161887141Y-77481169D01*
X161654484Y-77636626D01*
X161456626Y-77834484D01*
X161301169Y-78067141D01*
X161194089Y-78325655D01*
X161139500Y-78600093D01*
X161139500Y-78879907D01*
X161191710Y-79142383D01*
X158757093Y-81577000D01*
X142371752Y-81577000D01*
X142270990Y-81426199D01*
X142088801Y-81244010D01*
X141874570Y-81100865D01*
X141636530Y-81002266D01*
X141383827Y-80952000D01*
X141126173Y-80952000D01*
X140873470Y-81002266D01*
X140635430Y-81100865D01*
X140421199Y-81244010D01*
X140239010Y-81426199D01*
X140095865Y-81640430D01*
X139997266Y-81878470D01*
X139947000Y-82131173D01*
X139947000Y-82388827D01*
X139997266Y-82641530D01*
X140035858Y-82734700D01*
X140019941Y-82734700D01*
X140012734Y-82698470D01*
X139914135Y-82460430D01*
X139770990Y-82246199D01*
X139588801Y-82064010D01*
X139374570Y-81920865D01*
X139136530Y-81822266D01*
X138883827Y-81772000D01*
X138626173Y-81772000D01*
X138373470Y-81822266D01*
X138135430Y-81920865D01*
X137921199Y-82064010D01*
X137739010Y-82246199D01*
X137595865Y-82460430D01*
X137497266Y-82698470D01*
X137447000Y-82951173D01*
X119963000Y-82951173D01*
X119963000Y-67717500D01*
X120496801Y-67717500D01*
X120496801Y-69442500D01*
X120507575Y-69551887D01*
X120539482Y-69657070D01*
X120591296Y-69754008D01*
X120661026Y-69838974D01*
X120745992Y-69908704D01*
X120842930Y-69960518D01*
X120948113Y-69992425D01*
X121037524Y-70001231D01*
X121014484Y-70016626D01*
X120816626Y-70214484D01*
X120661169Y-70447141D01*
X120554089Y-70705655D01*
X120499500Y-70980093D01*
X120499500Y-71259907D01*
X120554089Y-71534345D01*
X120661169Y-71792859D01*
X120816626Y-72025516D01*
X121014484Y-72223374D01*
X121247141Y-72378831D01*
X121274105Y-72390000D01*
X121247141Y-72401169D01*
X121014484Y-72556626D01*
X120816626Y-72754484D01*
X120661169Y-72987141D01*
X120554089Y-73245655D01*
X120499500Y-73520093D01*
X120499500Y-73799907D01*
X120554089Y-74074345D01*
X120661169Y-74332859D01*
X120816626Y-74565516D01*
X121014484Y-74763374D01*
X121247141Y-74918831D01*
X121274105Y-74930000D01*
X121247141Y-74941169D01*
X121014484Y-75096626D01*
X120816626Y-75294484D01*
X120661169Y-75527141D01*
X120554089Y-75785655D01*
X120499500Y-76060093D01*
X120499500Y-76339907D01*
X120554089Y-76614345D01*
X120661169Y-76872859D01*
X120816626Y-77105516D01*
X121014484Y-77303374D01*
X121247141Y-77458831D01*
X121274105Y-77470000D01*
X121247141Y-77481169D01*
X121014484Y-77636626D01*
X120816626Y-77834484D01*
X120661169Y-78067141D01*
X120554089Y-78325655D01*
X120499500Y-78600093D01*
X120499500Y-78879907D01*
X120554089Y-79154345D01*
X120661169Y-79412859D01*
X120816626Y-79645516D01*
X121014484Y-79843374D01*
X121247141Y-79998831D01*
X121274105Y-80010000D01*
X121247141Y-80021169D01*
X121014484Y-80176626D01*
X120816626Y-80374484D01*
X120661169Y-80607141D01*
X120554089Y-80865655D01*
X120499500Y-81140093D01*
X120499500Y-81419907D01*
X120554089Y-81694345D01*
X120661169Y-81952859D01*
X120816626Y-82185516D01*
X121014484Y-82383374D01*
X121247141Y-82538831D01*
X121505655Y-82645911D01*
X121780093Y-82700500D01*
X122059907Y-82700500D01*
X122334345Y-82645911D01*
X122592859Y-82538831D01*
X122825516Y-82383374D01*
X123023374Y-82185516D01*
X123178831Y-81952859D01*
X123285911Y-81694345D01*
X123340500Y-81419907D01*
X123340500Y-81140093D01*
X123285911Y-80865655D01*
X123178831Y-80607141D01*
X123023374Y-80374484D01*
X122825516Y-80176626D01*
X122592859Y-80021169D01*
X122565895Y-80010000D01*
X122592859Y-79998831D01*
X122602543Y-79992360D01*
X146441140Y-79992360D01*
X146516858Y-80200337D01*
X146756673Y-80294541D01*
X147010258Y-80340149D01*
X147267869Y-80335409D01*
X147519604Y-80280503D01*
X147713142Y-80200337D01*
X147788860Y-79992360D01*
X147115000Y-79318500D01*
X146441140Y-79992360D01*
X122602543Y-79992360D01*
X122825516Y-79843374D01*
X123023374Y-79645516D01*
X123178831Y-79412859D01*
X123285911Y-79154345D01*
X123331479Y-78925258D01*
X145804851Y-78925258D01*
X145809591Y-79182869D01*
X145864497Y-79434604D01*
X145944663Y-79628142D01*
X146152640Y-79703860D01*
X146826500Y-79030000D01*
X147403500Y-79030000D01*
X148077360Y-79703860D01*
X148285337Y-79628142D01*
X148379541Y-79388327D01*
X148425149Y-79134742D01*
X148420409Y-78877131D01*
X148365503Y-78625396D01*
X148285337Y-78431858D01*
X148077360Y-78356140D01*
X147403500Y-79030000D01*
X146826500Y-79030000D01*
X146152640Y-78356140D01*
X145944663Y-78431858D01*
X145850459Y-78671673D01*
X145804851Y-78925258D01*
X123331479Y-78925258D01*
X123340500Y-78879907D01*
X123340500Y-78600093D01*
X123285911Y-78325655D01*
X123178831Y-78067141D01*
X123023374Y-77834484D01*
X122825516Y-77636626D01*
X122592859Y-77481169D01*
X122565895Y-77470000D01*
X122592859Y-77458831D01*
X122825516Y-77303374D01*
X123023374Y-77105516D01*
X123172055Y-76883000D01*
X131147000Y-76883000D01*
X131147000Y-76908827D01*
X131197266Y-77161530D01*
X131295865Y-77399570D01*
X131439010Y-77613801D01*
X131621199Y-77795990D01*
X131835430Y-77939135D01*
X132073470Y-78037734D01*
X132326173Y-78088000D01*
X132583827Y-78088000D01*
X132836530Y-78037734D01*
X133074570Y-77939135D01*
X133288801Y-77795990D01*
X133470990Y-77613801D01*
X133614135Y-77399570D01*
X133712734Y-77161530D01*
X133763000Y-76908827D01*
X133763000Y-76651173D01*
X135147000Y-76651173D01*
X135147000Y-76908827D01*
X135197266Y-77161530D01*
X135295865Y-77399570D01*
X135439010Y-77613801D01*
X135621199Y-77795990D01*
X135835430Y-77939135D01*
X136073470Y-78037734D01*
X136326173Y-78088000D01*
X136583827Y-78088000D01*
X136686183Y-78067640D01*
X146441140Y-78067640D01*
X147115000Y-78741500D01*
X147788860Y-78067640D01*
X147786131Y-78060144D01*
X147926173Y-78088000D01*
X148183827Y-78088000D01*
X148436530Y-78037734D01*
X148674570Y-77939135D01*
X148888801Y-77795990D01*
X149070990Y-77613801D01*
X149214135Y-77399570D01*
X149312734Y-77161530D01*
X149363000Y-76908827D01*
X149363000Y-76651173D01*
X149312734Y-76398470D01*
X149214135Y-76160430D01*
X149152757Y-76068571D01*
X161138691Y-76068571D01*
X161140361Y-76348380D01*
X161196586Y-76622486D01*
X161297177Y-76865336D01*
X161516584Y-76954916D01*
X162271500Y-76200000D01*
X162848500Y-76200000D01*
X163603416Y-76954916D01*
X163822823Y-76865336D01*
X163928358Y-76606187D01*
X163981309Y-76331429D01*
X163979639Y-76051620D01*
X163923414Y-75777514D01*
X163822823Y-75534664D01*
X163603416Y-75445084D01*
X162848500Y-76200000D01*
X162271500Y-76200000D01*
X161516584Y-75445084D01*
X161297177Y-75534664D01*
X161191642Y-75793813D01*
X161138691Y-76068571D01*
X149152757Y-76068571D01*
X149070990Y-75946199D01*
X148888801Y-75764010D01*
X148674570Y-75620865D01*
X148436530Y-75522266D01*
X148183827Y-75472000D01*
X147926173Y-75472000D01*
X147673470Y-75522266D01*
X147435430Y-75620865D01*
X147221199Y-75764010D01*
X147039010Y-75946199D01*
X146895865Y-76160430D01*
X146797266Y-76398470D01*
X146747000Y-76651173D01*
X146747000Y-76908827D01*
X146797266Y-77161530D01*
X146895865Y-77399570D01*
X147039010Y-77613801D01*
X147146409Y-77721200D01*
X146962131Y-77724591D01*
X146710396Y-77779497D01*
X146516858Y-77859663D01*
X146441140Y-78067640D01*
X136686183Y-78067640D01*
X136836530Y-78037734D01*
X137074570Y-77939135D01*
X137288801Y-77795990D01*
X137470990Y-77613801D01*
X137614135Y-77399570D01*
X137712734Y-77161530D01*
X137763000Y-76908827D01*
X137763000Y-76651173D01*
X137712734Y-76398470D01*
X137614135Y-76160430D01*
X137470990Y-75946199D01*
X137288801Y-75764010D01*
X137074570Y-75620865D01*
X136836530Y-75522266D01*
X136583827Y-75472000D01*
X136326173Y-75472000D01*
X136073470Y-75522266D01*
X135835430Y-75620865D01*
X135621199Y-75764010D01*
X135439010Y-75946199D01*
X135295865Y-76160430D01*
X135197266Y-76398470D01*
X135147000Y-76651173D01*
X133763000Y-76651173D01*
X133712734Y-76398470D01*
X133614135Y-76160430D01*
X133470990Y-75946199D01*
X133288801Y-75764010D01*
X133074570Y-75620865D01*
X132836530Y-75522266D01*
X132583827Y-75472000D01*
X132326173Y-75472000D01*
X132073470Y-75522266D01*
X132039735Y-75536239D01*
X132008891Y-75526883D01*
X131908546Y-75517000D01*
X131908536Y-75517000D01*
X131875000Y-75513697D01*
X131841464Y-75517000D01*
X123172055Y-75517000D01*
X123023374Y-75294484D01*
X122825516Y-75096626D01*
X122592859Y-74941169D01*
X122565895Y-74930000D01*
X122592859Y-74918831D01*
X122825516Y-74763374D01*
X123023374Y-74565516D01*
X123172055Y-74343000D01*
X131272433Y-74343000D01*
X131295865Y-74399570D01*
X131439010Y-74613801D01*
X131621199Y-74795990D01*
X131835430Y-74939135D01*
X132073470Y-75037734D01*
X132326173Y-75088000D01*
X132583827Y-75088000D01*
X132836530Y-75037734D01*
X133074570Y-74939135D01*
X133288801Y-74795990D01*
X133470990Y-74613801D01*
X133614135Y-74399570D01*
X133712734Y-74161530D01*
X133763000Y-73908827D01*
X133763000Y-73651173D01*
X133712734Y-73398470D01*
X133614135Y-73160430D01*
X133470990Y-72946199D01*
X133288801Y-72764010D01*
X133074570Y-72620865D01*
X132836530Y-72522266D01*
X132583827Y-72472000D01*
X132326173Y-72472000D01*
X132073470Y-72522266D01*
X131835430Y-72620865D01*
X131621199Y-72764010D01*
X131439010Y-72946199D01*
X131418429Y-72977000D01*
X123172055Y-72977000D01*
X123023374Y-72754484D01*
X122825516Y-72556626D01*
X122592859Y-72401169D01*
X122565895Y-72390000D01*
X122592859Y-72378831D01*
X122825516Y-72223374D01*
X123023374Y-72025516D01*
X123172055Y-71803000D01*
X137601464Y-71803000D01*
X137635000Y-71806303D01*
X137668536Y-71803000D01*
X137668546Y-71803000D01*
X137768891Y-71793117D01*
X137897637Y-71754062D01*
X138016290Y-71690641D01*
X138120290Y-71605290D01*
X138141677Y-71579230D01*
X138948291Y-70772617D01*
X139126173Y-70808000D01*
X139383827Y-70808000D01*
X139636530Y-70757734D01*
X139874570Y-70659135D01*
X140088801Y-70515990D01*
X140270990Y-70333801D01*
X140414135Y-70119570D01*
X140512734Y-69881530D01*
X140563000Y-69628827D01*
X140563000Y-69371173D01*
X140512734Y-69118470D01*
X140414135Y-68880430D01*
X140270990Y-68666199D01*
X140088801Y-68484010D01*
X139874570Y-68340865D01*
X139779280Y-68301395D01*
X139914135Y-68099570D01*
X140012734Y-67861530D01*
X140063000Y-67608827D01*
X140063000Y-67351173D01*
X140447000Y-67351173D01*
X140447000Y-67608827D01*
X140497266Y-67861530D01*
X140595865Y-68099570D01*
X140739010Y-68313801D01*
X140921199Y-68495990D01*
X141135430Y-68639135D01*
X141373470Y-68737734D01*
X141626173Y-68788000D01*
X141883827Y-68788000D01*
X142061709Y-68752617D01*
X142348327Y-69039235D01*
X142369710Y-69065290D01*
X142473710Y-69150641D01*
X142528941Y-69180162D01*
X142592362Y-69214062D01*
X142631417Y-69225909D01*
X142721109Y-69253117D01*
X142821454Y-69263000D01*
X142821464Y-69263000D01*
X142855000Y-69266303D01*
X142888536Y-69263000D01*
X161307945Y-69263000D01*
X161456626Y-69485516D01*
X161654484Y-69683374D01*
X161887141Y-69838831D01*
X161914105Y-69850000D01*
X161887141Y-69861169D01*
X161654484Y-70016626D01*
X161456626Y-70214484D01*
X161307945Y-70437000D01*
X150748535Y-70437000D01*
X150714999Y-70433697D01*
X150681463Y-70437000D01*
X150681454Y-70437000D01*
X150581109Y-70446883D01*
X150452363Y-70485938D01*
X150333710Y-70549359D01*
X150229710Y-70634710D01*
X150208328Y-70660764D01*
X148361709Y-72507383D01*
X148183827Y-72472000D01*
X147926173Y-72472000D01*
X147673470Y-72522266D01*
X147435430Y-72620865D01*
X147221199Y-72764010D01*
X147039010Y-72946199D01*
X146895865Y-73160430D01*
X146797266Y-73398470D01*
X146747000Y-73651173D01*
X146747000Y-73908827D01*
X146797266Y-74161530D01*
X146895865Y-74399570D01*
X147039010Y-74613801D01*
X147221199Y-74795990D01*
X147435430Y-74939135D01*
X147673470Y-75037734D01*
X147926173Y-75088000D01*
X148183827Y-75088000D01*
X148436530Y-75037734D01*
X148674570Y-74939135D01*
X148888801Y-74795990D01*
X149070990Y-74613801D01*
X149214135Y-74399570D01*
X149312734Y-74161530D01*
X149363000Y-73908827D01*
X149363000Y-73651173D01*
X149327617Y-73473291D01*
X150997908Y-71803000D01*
X161307945Y-71803000D01*
X161456626Y-72025516D01*
X161654484Y-72223374D01*
X161887141Y-72378831D01*
X161914105Y-72390000D01*
X161887141Y-72401169D01*
X161654484Y-72556626D01*
X161456626Y-72754484D01*
X161301169Y-72987141D01*
X161194089Y-73245655D01*
X161139500Y-73520093D01*
X161139500Y-73799907D01*
X161194089Y-74074345D01*
X161301169Y-74332859D01*
X161456626Y-74565516D01*
X161654484Y-74763374D01*
X161887141Y-74918831D01*
X161913048Y-74929562D01*
X161894664Y-74937177D01*
X161805084Y-75156584D01*
X162560000Y-75911500D01*
X163314916Y-75156584D01*
X163225336Y-74937177D01*
X163206796Y-74929627D01*
X163232859Y-74918831D01*
X163465516Y-74763374D01*
X163663374Y-74565516D01*
X163818831Y-74332859D01*
X163925911Y-74074345D01*
X163980500Y-73799907D01*
X163980500Y-73520093D01*
X163925911Y-73245655D01*
X163818831Y-72987141D01*
X163663374Y-72754484D01*
X163465516Y-72556626D01*
X163232859Y-72401169D01*
X163205895Y-72390000D01*
X163232859Y-72378831D01*
X163465516Y-72223374D01*
X163663374Y-72025516D01*
X163818831Y-71792859D01*
X163925911Y-71534345D01*
X163980500Y-71259907D01*
X163980500Y-70980093D01*
X163925911Y-70705655D01*
X163818831Y-70447141D01*
X163663374Y-70214484D01*
X163465516Y-70016626D01*
X163232859Y-69861169D01*
X163205895Y-69850000D01*
X163232859Y-69838831D01*
X163465516Y-69683374D01*
X163663374Y-69485516D01*
X163818831Y-69252859D01*
X163925911Y-68994345D01*
X163980500Y-68719907D01*
X163980500Y-68440093D01*
X163925911Y-68165655D01*
X163818831Y-67907141D01*
X163663374Y-67674484D01*
X163465516Y-67476626D01*
X163232859Y-67321169D01*
X162974345Y-67214089D01*
X162699907Y-67159500D01*
X162420093Y-67159500D01*
X162145655Y-67214089D01*
X161887141Y-67321169D01*
X161654484Y-67476626D01*
X161456626Y-67674484D01*
X161307945Y-67897000D01*
X143137908Y-67897000D01*
X143027617Y-67786709D01*
X143063000Y-67608827D01*
X143063000Y-67351173D01*
X143012734Y-67098470D01*
X142914135Y-66860430D01*
X142770990Y-66646199D01*
X142588801Y-66464010D01*
X142374570Y-66320865D01*
X142136530Y-66222266D01*
X141883827Y-66172000D01*
X141626173Y-66172000D01*
X141373470Y-66222266D01*
X141135430Y-66320865D01*
X140921199Y-66464010D01*
X140739010Y-66646199D01*
X140595865Y-66860430D01*
X140497266Y-67098470D01*
X140447000Y-67351173D01*
X140063000Y-67351173D01*
X140012734Y-67098470D01*
X139914135Y-66860430D01*
X139770990Y-66646199D01*
X139588801Y-66464010D01*
X139374570Y-66320865D01*
X139136530Y-66222266D01*
X138883827Y-66172000D01*
X138626173Y-66172000D01*
X138373470Y-66222266D01*
X138135430Y-66320865D01*
X137921199Y-66464010D01*
X137739010Y-66646199D01*
X137638248Y-66797000D01*
X124241336Y-66797000D01*
X124207800Y-66793697D01*
X124174264Y-66797000D01*
X124174254Y-66797000D01*
X124073909Y-66806883D01*
X123984217Y-66834091D01*
X123945162Y-66845938D01*
X123918050Y-66860430D01*
X123826510Y-66909359D01*
X123722510Y-66994710D01*
X123701127Y-67020765D01*
X123272110Y-67449782D01*
X123248704Y-67405992D01*
X123178974Y-67321026D01*
X123094008Y-67251296D01*
X122997070Y-67199482D01*
X122891887Y-67167575D01*
X122782500Y-67156801D01*
X121057500Y-67156801D01*
X120948113Y-67167575D01*
X120842930Y-67199482D01*
X120745992Y-67251296D01*
X120661026Y-67321026D01*
X120591296Y-67405992D01*
X120539482Y-67502930D01*
X120507575Y-67608113D01*
X120496801Y-67717500D01*
X119963000Y-67717500D01*
X119963000Y-64083000D01*
X164517001Y-64083000D01*
X164517000Y-85777000D01*
G37*
%TD.AperFunction*%
%TD*%
M02*
