M48
; DRILL file {KiCad (5.1.9)-1} date 03/10/21 13:48:50
; FORMAT={-:-/ absolute / inch / decimal}
; #@! TF.CreationDate,2021-03-10T13:48:50-05:00
; #@! TF.GenerationSoftware,Kicad,Pcbnew,(5.1.9)-1
; #@! TF.FileFunction,Plated,1,2,PTH
FMAT,2
INCH
T1C0.0394
T2C0.0433
T3C0.0453
%
G90
G05
T1
X5.2148Y-2.9047
X5.2148Y-3.0228
X5.4628Y-2.6567
X5.4628Y-3.2709
X5.4825Y-2.7362
X5.5612Y-3.2386
X5.5809Y-2.6567
X5.7919Y-3.1114
X5.8289Y-2.9047
X5.8289Y-3.0228
T2
X5.3722Y-3.0228
T3
X4.8Y-2.7
X4.8Y-2.8
X4.8Y-2.9
X4.8Y-3.0
X4.8Y-3.1
X4.8Y-3.2
X6.4Y-2.7
X6.4Y-2.8
X6.4Y-2.9
X6.4Y-3.0
X6.4Y-3.1
X6.4Y-3.2
T0
M30
